<?xml version="1.0" encoding="UTF-8" standalone="no"?>
<!DOCTYPE svg PUBLIC "-//W3C//DTD SVG 1.1//EN" "http://www.w3.org/Graphics/SVG/1.1/DTD/svg11.dtd">
<svg xmlns="http://www.w3.org/2000/svg" version="1.1" viewBox="0.00 0.00 197.00 185.00">
<g stroke-width="2.00" fill="none" stroke-linecap="butt">
<path stroke="#706178" vector-effect="non-scaling-stroke" d="
  M 181.58 127.16
  Q 182.29 125.68 182.40 124.08
  Q 182.43 123.62 182.85 123.43
  L 183.12 123.31
  Q 183.36 123.20 183.40 122.94
  Q 183.76 120.53 184.52 118.26
  Q 185.18 116.27 185.72 114.18
  Q 191.22 92.86 191.81 71.40
  C 191.89 68.60 191.44 66.54 189.80 64.36
  C 179.54 50.80 165.92 39.37 151.74 30.13
  Q 135.91 19.82 118.12 11.46
  Q 115.80 10.37 113.52 9.49
  Q 110.89 8.48 108.41 7.35
  C 106.07 6.27 103.75 5.82 101.32 5.05
  C 98.41 4.13 95.11 5.31 92.39 6.30
  Q 68.70 14.84 47.46 28.35
  C 32.59 37.81 18.61 49.62 7.83 63.59
  C 5.07 67.16 4.92 71.24 5.27 75.55
  Q 5.64 80.02 5.95 84.43
  C 6.31 89.45 7.51 94.37 8.22 99.44
  Q 8.62 102.35 9.38 105.49
  C 14.29 125.90 22.00 145.19 32.84 163.47
  Q 36.80 170.15 43.37 173.30
  C 45.07 174.12 46.71 174.15 48.42 174.80
  C 51.86 176.09 55.33 176.07 58.84 176.94
  Q 62.10 177.76 65.31 177.93
  C 71.38 178.26 77.31 179.69 83.46 179.88
  Q 96.70 180.29 111.19 179.88
  C 115.51 179.76 119.64 178.99 123.92 178.55
  Q 132.99 177.63 143.14 176.06
  Q 150.12 174.98 153.72 172.88
  Q 158.37 170.16 161.98 165.15
  Q 172.20 150.94 179.04 133.85
  Q 179.85 131.83 180.56 129.70
  Q 180.99 128.40 181.58 127.16"
/>
<path stroke="#175388" vector-effect="non-scaling-stroke" d="
  M 78.75 65.97
  C 74.68 64.41 68.43 62.47 67.56 68.40
  Q 67.47 69.01 66.86 69.11
  C 63.64 69.62 60.57 70.76 61.14 74.88
  Q 61.28 75.87 60.28 76.01
  C 56.98 76.46 52.17 77.07 52.10 81.48
  Q 52.08 82.28 51.68 82.92
  A 1.53 1.50 -81.8 0 1 50.81 83.58
  C 46.61 84.80 42.54 86.74 45.57 92.09
  A 1.68 1.67 55.2 0 1 45.20 94.18
  C 42.29 96.69 38.81 99.82 40.53 104.10
  C 40.98 105.23 42.06 105.86 42.48 107.06
  Q 42.64 107.50 42.39 107.90
  Q 41.35 109.57 40.36 111.22
  C 38.63 114.09 40.03 117.77 42.65 119.43
  A 2.12 2.11 27.3 0 1 43.48 122.01
  Q 40.32 129.81 47.67 133.12
  A 0.92 0.92 0.0 0 1 48.22 134.07
  C 47.89 137.05 47.67 140.55 50.95 142.08
  Q 55.25 144.09 60.59 144.01
  Q 60.69 144.01 60.70 144.10
  L 60.72 144.38
  A 0.48 0.48 0.0 0 1 60.31 144.89
  Q 49.89 146.18 40.09 146.16
  Q 38.87 146.16 39.88 146.84
  L 52.60 155.50
  Q 53.56 156.15 52.76 156.98
  L 43.49 166.72
  A 0.66 0.66 0.0 0 0 43.93 167.83
  Q 46.79 168.03 49.97 168.19
  Q 63.40 168.90 74.95 162.13
  Q 75.99 161.52 75.50 160.41
  L 73.96 156.89
  Q 73.47 155.77 74.68 155.59
  Q 100.48 151.77 127.39 155.29
  Q 128.81 155.48 128.29 156.82
  L 126.61 161.18
  A 0.83 0.82 24.2 0 0 127.01 162.21
  C 136.95 167.32 146.96 168.56 157.88 167.84
  Q 158.79 167.78 158.19 167.10
  L 149.27 156.98
  Q 148.66 156.29 149.41 155.73
  Q 155.73 151.04 162.07 147.01
  Q 163.70 145.97 161.77 146.18
  Q 151.66 147.24 140.79 144.99
  Q 139.71 144.76 138.70 144.31
  Q 138.19 144.08 138.18 143.53
  Q 138.15 142.68 138.69 142.05
  Q 139.08 141.61 139.69 141.55
  Q 148.52 140.76 154.03 134.37
  Q 155.26 132.94 153.77 131.79
  A 0.58 0.58 0.0 0 1 153.84 130.83
  C 156.15 129.45 159.69 127.30 160.56 124.65
  Q 160.75 124.09 160.40 123.63
  Q 159.15 121.94 156.87 122.10
  Q 154.67 122.24 156.29 120.75
  C 158.74 118.47 164.44 112.33 158.21 110.09
  Q 157.50 109.83 157.90 109.19
  C 159.20 107.10 160.32 104.96 161.15 102.63
  C 162.23 99.62 160.48 97.33 157.13 98.22
  Q 155.32 98.70 156.09 96.99
  Q 158.02 92.70 157.50 87.33
  C 157.19 84.15 153.62 85.93 152.25 86.78
  A 0.51 0.51 0.0 0 1 151.48 86.40
  C 151.22 83.66 151.31 80.91 149.85 78.43
  C 149.15 77.25 147.69 77.27 146.82 78.20
  A 0.67 0.66 -25.5 0 1 145.67 77.80
  C 145.47 74.89 144.97 70.89 143.10 68.57
  Q 142.73 68.12 142.26 68.46
  Q 140.78 69.52 139.78 70.98
  Q 138.80 72.40 138.49 70.71
  Q 137.75 66.80 134.71 64.18
  A 2.06 2.05 30.8 0 0 131.45 65.00
  Q 130.67 67.04 130.88 69.70
  Q 130.96 70.76 130.13 70.10
  Q 125.87 66.70 120.44 66.63"
/>
<path stroke="#019082" vector-effect="non-scaling-stroke" d="
  M 120.44 66.63
  C 120.50 60.64 115.20 57.13 109.53 57.84
  A 1.36 1.35 79.1 0 1 108.05 56.83
  C 107.22 53.69 105.86 50.91 102.48 49.97
  Q 99.51 49.14 96.48 49.58
  C 93.03 50.08 90.54 54.17 89.42 57.11
  Q 89.21 57.69 88.59 57.72
  Q 80.34 58.15 78.75 65.97"
/>
<path stroke="#185749" vector-effect="non-scaling-stroke" d="
  M 120.44 66.63
  L 120.38 67.95"
/>
<path stroke="#80caa0" vector-effect="non-scaling-stroke" d="
  M 120.38 67.95
  Q 119.99 68.81 120.33 69.79"
/>
<path stroke="#185749" vector-effect="non-scaling-stroke" d="
  M 120.33 69.79
  Q 119.31 70.10 119.26 71.18"
/>
<path stroke="#019082" vector-effect="non-scaling-stroke" d="
  M 119.26 71.18
  Q 117.21 72.37 115.83 74.42
  A 1.37 1.35 -34.4 0 0 115.63 75.46
  C 116.66 80.42 115.52 84.50 110.60 86.68
  Q 107.59 88.01 105.01 87.27
  C 102.95 86.67 100.73 84.94 98.52 85.71
  C 96.20 86.51 93.98 87.94 91.40 87.50
  Q 85.18 86.44 83.78 80.79
  C 83.32 78.89 83.67 77.08 83.93 75.20
  Q 84.00 74.64 83.64 74.21
  Q 82.39 72.73 80.79 72.28"
/>
<path stroke="#185749" vector-effect="non-scaling-stroke" d="
  M 80.79 72.28
  Q 80.21 69.62 78.82 69.67"
/>
<path stroke="#80caa0" vector-effect="non-scaling-stroke" d="
  M 78.82 69.67
  L 78.55 67.44"
/>
<path stroke="#185749" vector-effect="non-scaling-stroke" d="
  M 78.55 67.44
  Q 78.96 67.79 78.75 65.97"
/>
<path stroke="#978da7" vector-effect="non-scaling-stroke" d="
  M 78.55 67.44
  L 71.61 66.78
  Q 71.01 66.72 70.86 67.31
  C 70.39 69.15 72.65 69.87 74.00 70.13
  Q 74.51 70.23 74.50 70.76
  Q 74.46 72.20 75.15 73.46
  A 1.54 1.54 0.0 0 0 78.00 73.08
  L 78.82 69.67"
/>
<path stroke="#175388" vector-effect="non-scaling-stroke" d="
  M 80.79 72.28
  C 80.16 74.26 79.25 76.11 77.21 76.86
  Q 75.94 77.32 74.74 77.94
  A 1.53 1.51 88.5 0 0 74.02 78.71
  C 72.57 82.12 70.31 81.73 67.35 82.68
  Q 66.67 82.90 66.47 83.59
  C 65.81 85.89 65.23 87.88 62.91 89.05
  C 61.91 89.56 61.51 90.45 61.52 91.55
  Q 61.58 94.95 59.52 97.58
  Q 59.22 97.96 59.19 98.45
  C 59.02 101.59 60.02 104.23 57.80 106.90
  A 2.42 2.42 0.0 0 0 57.62 109.77
  Q 59.97 113.41 58.03 117.03
  A 1.97 1.96 -53.4 0 0 58.36 119.32
  C 60.01 120.99 60.97 122.97 60.85 125.27
  C 60.67 128.49 61.80 128.62 63.93 130.34
  C 66.93 132.77 66.16 136.37 64.96 139.51
  A 0.52 0.52 0.0 0 0 65.62 140.19
  Q 68.49 139.20 71.82 138.63
  C 83.72 136.59 94.75 135.65 106.74 136.37
  Q 119.82 137.16 132.63 139.73
  Q 134.05 140.02 133.14 138.88
  Q 133.11 138.85 132.73 138.65
  Q 132.18 138.37 131.90 137.81
  C 130.75 135.47 126.64 124.80 131.09 123.84
  Q 132.63 123.51 131.94 122.10
  Q 129.93 117.99 132.80 116.78
  C 133.55 116.47 134.47 116.69 135.26 116.72
  Q 136.18 116.75 135.69 115.98
  C 134.11 113.47 133.05 110.31 136.68 109.12
  A 0.60 0.60 0.0 0 0 136.93 108.14
  Q 134.62 105.68 134.50 102.88
  A 1.15 1.14 -21.5 0 1 134.90 101.97
  Q 135.07 101.82 135.27 101.74
  Q 136.94 101.07 135.42 100.10
  C 133.79 99.05 130.86 96.71 132.60 94.50
  A 0.57 0.56 33.3 0 0 132.42 93.66
  Q 130.76 92.79 129.62 91.41
  Q 128.39 89.93 130.15 88.87
  A 0.60 0.60 0.0 0 0 130.01 87.78
  Q 126.39 86.70 123.79 84.04
  Q 123.39 83.64 123.29 83.10
  Q 123.21 82.65 123.45 82.25
  Q 123.77 81.74 123.28 81.39
  L 119.85 78.92
  A 1.59 1.59 0.0 0 1 120.32 76.11
  L 122.69 75.39
  A 0.72 0.71 56.0 0 0 122.93 74.15
  L 119.26 71.18"
/>
<path stroke="#978da7" vector-effect="non-scaling-stroke" d="
  M 120.33 69.79
  Q 123.61 73.63 129.82 74.94
  Q 130.98 75.18 131.20 74.02
  C 131.44 72.75 130.47 72.06 129.62 71.31
  Q 125.54 67.72 120.38 67.95"
/>
<path stroke="#7fbe6b" vector-effect="non-scaling-stroke" d="
  M 181.58 96.00
  L 182.68 95.88
  A 0.88 0.87 -5.1 0 0 183.46 94.95
  L 183.43 94.57
  A 0.48 0.48 0.0 0 0 182.95 94.13
  Q 178.86 94.18 174.77 95.15
  A 0.98 0.98 0.0 0 0 174.42 96.89
  L 180.58 101.39
  A 0.47 0.47 0.0 0 0 181.25 101.27
  L 181.41 101.04
  Q 181.72 100.57 181.27 100.23
  Q 179.65 99.00 180.78 96.58
  A 0.99 0.98 8.8 0 1 181.58 96.00"
/>
<path stroke="#7fbe6b" vector-effect="non-scaling-stroke" d="
  M 20.21 98.94
  C 20.72 98.19 21.56 97.75 21.93 96.89
  Q 22.10 96.48 21.97 96.07
  A 0.80 0.79 53.0 0 0 20.56 95.87
  Q 18.05 99.52 14.75 100.33
  Q 14.09 100.50 14.49 101.05
  L 14.69 101.32
  Q 15.06 101.84 15.66 101.65
  C 17.10 101.22 18.45 100.85 19.97 101.25
  Q 21.77 101.72 23.48 101.74
  Q 24.09 101.74 23.84 101.18
  L 23.71 100.90
  A 1.48 1.45 -7.2 0 0 22.62 100.07
  L 20.55 99.74
  Q 19.75 99.61 20.21 98.94"
/>
<path stroke="#7fbe6b" vector-effect="non-scaling-stroke" d="
  M 171.89 106.78
  L 178.34 108.28
  A 0.89 0.89 0.0 0 0 179.41 107.62
  L 179.94 105.30
  A 3.60 3.41 13.1 0 0 177.21 101.16
  L 176.04 100.89
  A 3.60 3.41 13.1 0 0 171.76 103.40
  L 171.22 105.71
  A 0.89 0.89 0.0 0 0 171.89 106.78"
/>
<path stroke="#7fbe6b" vector-effect="non-scaling-stroke" d="
  M 18.71 106.17
  A 1.88 1.88 0.0 0 1 18.67 108.40
  Q 17.99 109.31 17.98 110.37
  Q 17.97 111.40 18.77 110.75
  L 24.85 105.81
  A 1.04 1.04 0.0 0 0 24.23 103.96
  L 16.53 103.71
  Q 16.00 103.70 16.04 104.22
  L 16.08 104.70
  Q 16.12 105.20 16.63 105.20
  Q 18.04 105.21 18.71 106.17"
/>
<path stroke="#7fbe6b" vector-effect="non-scaling-stroke" d="
  M 25.62 112.12
  Q 23.79 111.88 25.28 110.80
  Q 26.80 109.68 26.14 108.36
  A 0.73 0.73 0.0 0 0 24.84 108.35
  Q 23.04 111.82 19.96 112.44
  A 0.84 0.84 0.0 0 0 19.29 113.35
  L 19.33 113.65
  A 0.44 0.44 0.0 0 0 19.88 114.03
  Q 23.69 112.98 27.57 114.18
  Q 28.11 114.35 28.14 113.78
  Q 28.16 113.35 27.83 113.08
  Q 26.88 112.29 25.62 112.12"
/>
<path stroke="#7fbe6b" vector-effect="non-scaling-stroke" d="
  M 175.44 113.28
  Q 175.84 111.33 177.31 111.02
  Q 177.81 110.92 178.06 110.48
  L 178.41 109.87
  Q 178.72 109.32 178.09 109.38
  Q 174.17 109.79 170.66 109.92
  Q 170.00 109.94 169.51 110.41
  Q 168.72 111.16 170.27 112.60
  A 2.31 1.73 0.0 0 0 170.63 112.87
  Q 172.65 114.01 174.17 115.45
  Q 174.89 116.12 175.94 116.27
  Q 176.80 116.39 176.50 115.57
  Q 176.23 114.82 175.69 114.22
  Q 175.33 113.81 175.44 113.28"
/>
<path stroke="#7fbe6b" vector-effect="non-scaling-stroke" d="
  M 23.65 120.66
  Q 23.34 121.27 22.75 121.59
  A 0.63 0.63 0.0 0 0 22.51 122.46
  L 22.69 122.74
  Q 22.96 123.19 23.40 122.91
  Q 26.73 120.77 29.35 118.05
  A 1.12 1.12 0.0 0 0 28.67 116.16
  Q 24.73 115.75 20.50 116.25
  Q 19.87 116.33 20.18 116.88
  L 20.33 117.13
  A 0.95 0.94 -17.2 0 0 21.25 117.61
  Q 23.33 117.43 23.76 119.95
  Q 23.83 120.32 23.65 120.66"
/>
<path stroke="#7fbe6b" vector-effect="non-scaling-stroke" d="
  M 169.51 119.53
  Q 168.89 120.83 168.17 119.57
  Q 167.49 118.36 168.95 117.74
  Q 169.51 117.51 169.84 117.03
  Q 170.67 115.82 169.21 115.98
  C 166.55 116.29 165.26 121.19 168.63 121.54
  C 171.08 121.79 171.22 119.26 172.51 118.13
  Q 173.28 117.45 173.99 118.71
  A 1.36 1.36 0.0 0 1 173.50 120.55
  L 171.50 121.74
  Q 171.04 122.01 171.39 122.42
  Q 171.99 123.10 172.77 122.83
  Q 175.15 121.97 175.48 119.17
  Q 175.62 118.01 174.74 117.26
  C 172.51 115.34 170.41 117.64 169.51 119.53"
/>
<path stroke="#7fbe6b" vector-effect="non-scaling-stroke" d="
  M 25.95 127.44
  Q 25.08 126.24 25.97 124.26
  Q 26.45 123.20 25.30 123.39
  Q 24.87 123.46 24.45 123.66
  Q 23.86 123.93 23.84 124.59
  C 23.75 127.38 24.79 130.12 28.31 128.86
  Q 29.13 128.57 29.11 127.70
  L 29.07 124.42
  Q 29.07 123.79 29.70 123.83
  Q 30.05 123.85 30.37 124.01
  Q 31.06 124.35 30.94 125.11
  Q 30.83 125.81 30.30 126.41
  Q 29.70 127.08 30.53 127.44
  L 30.77 127.55
  A 0.91 0.91 0.0 0 0 31.95 127.10
  C 34.47 121.78 26.07 119.31 27.63 126.70
  A 0.94 0.94 0.0 0 1 25.95 127.44"
/>
<path stroke="#7fbe6b" vector-effect="non-scaling-stroke" d="
  M 169.60 129.95
  C 172.51 130.50 173.79 126.77 172.51 124.70
  Q 172.22 124.21 171.67 124.06
  L 166.26 122.55
  A 0.77 0.77 0.0 0 0 165.32 123.03
  L 165.23 123.28
  A 0.40 0.39 19.3 0 0 165.48 123.79
  L 170.92 125.63
  Q 171.95 125.98 171.63 127.02
  Q 171.31 128.11 168.90 127.99
  Q 167.97 127.94 167.09 127.64
  L 164.67 126.81
  A 0.44 0.44 0.0 0 0 164.08 127.18
  L 164.01 127.81
  A 0.76 0.74 -77.9 0 0 164.51 128.60
  Q 166.99 129.45 169.60 129.95"
/>
<path stroke="#7fbe6b" vector-effect="non-scaling-stroke" d="
  M 165.73 133.02
  L 165.05 134.46
  A 0.95 0.95 0.0 0 1 163.62 134.81
  Q 162.41 133.90 161.43 134.96
  Q 160.98 135.44 161.58 135.70
  Q 165.28 137.31 168.83 137.94
  Q 169.40 138.04 169.48 137.46
  L 169.54 137.01
  A 0.83 0.83 0.0 0 0 168.76 136.07
  L 166.76 135.96
  Q 166.14 135.93 166.36 135.35
  L 167.06 133.49
  Q 167.32 132.81 168.02 132.99
  L 170.70 133.66
  A 0.34 0.34 0.0 0 0 171.12 133.41
  L 171.20 133.09
  A 0.91 0.91 0.0 0 0 170.60 132.01
  L 164.03 129.87
  A 0.75 0.75 0.0 0 0 163.06 130.44
  Q 162.78 131.97 165.07 131.97
  Q 166.23 131.97 165.73 133.02"
/>
<path stroke="#7fbe6b" vector-effect="non-scaling-stroke" d="
  M 33.14 139.30
  L 30.94 141.96
  Q 28.84 144.49 32.09 143.96
  Q 35.17 143.46 38.09 141.73
  Q 38.58 141.44 38.20 141.01
  L 37.99 140.76
  A 0.51 0.51 0.0 0 0 37.46 140.62
  L 35.49 141.29
  Q 31.95 142.51 34.79 140.03
  Q 36.05 138.93 36.43 137.83
  Q 37.23 135.50 34.94 136.41
  Q 32.53 137.36 30.27 137.94
  Q 27.45 138.67 29.62 136.73
  Q 31.40 135.13 33.59 133.57
  Q 36.80 131.27 32.89 130.67
  Q 29.76 130.20 26.10 130.15
  Q 25.29 130.14 25.63 130.88
  L 25.78 131.22
  Q 26.10 131.91 26.86 132.00
  Q 28.57 132.19 28.73 134.16
  C 28.79 134.93 28.41 135.46 28.06 136.09
  A 1.25 1.24 40.9 0 0 28.16 137.43
  Q 28.70 138.14 28.78 139.05
  Q 28.85 139.96 29.74 139.74
  L 32.93 138.95
  Q 33.57 138.79 33.14 139.30"
/>
<path stroke="#7fbe6b" vector-effect="non-scaling-stroke" d="
  M 85.18 171.92
  Q 84.46 170.55 84.35 168.93
  Q 84.31 168.37 83.86 168.04
  Q 83.07 167.46 82.07 167.97
  Q 81.64 168.19 81.53 168.66
  Q 81.07 170.51 80.70 172.29
  Q 80.68 172.41 80.55 172.44
  Q 80.42 172.47 80.28 172.49
  Q 80.16 172.51 80.15 172.38
  Q 80.08 170.29 79.27 168.42
  Q 79.02 167.83 78.39 167.71
  Q 78.21 167.68 78.06 167.76
  Q 77.50 168.03 77.65 168.63
  L 79.19 174.92
  A 1.13 1.12 51.7 0 0 81.28 175.17
  Q 82.07 173.62 82.19 171.85
  Q 82.30 170.18 83.23 171.57
  Q 84.12 172.91 84.18 174.75
  Q 84.19 175.32 84.73 175.54
  Q 85.26 175.76 85.82 175.53
  Q 86.33 175.32 86.50 174.79
  Q 87.54 171.46 87.99 168.44
  A 0.52 0.52 0.0 0 0 87.65 167.88
  L 87.26 167.74
  Q 86.43 167.44 86.28 168.31
  L 85.69 171.84
  Q 85.55 172.65 85.18 171.92"
/>
<path stroke="#7fbe6b" vector-effect="non-scaling-stroke" d="
  M 90.8431 168.3666
  A 0.51 0.51 0.0 0 0 90.3367 167.8530
  L 89.4967 167.8472
  A 0.51 0.51 0.0 0 0 88.9831 168.3536
  L 88.9369 174.9734
  A 0.51 0.51 0.0 0 0 89.4433 175.4870
  L 90.2833 175.4928
  A 0.51 0.51 0.0 0 0 90.7969 174.9864
  L 90.8431 168.3666"
/>
<path stroke="#7fbe6b" vector-effect="non-scaling-stroke" d="
  M 94.63 174.10
  Q 93.44 173.94 92.62 172.97
  A 0.34 0.34 0.0 0 0 92.04 173.09
  Q 91.33 175.33 93.76 175.70
  C 98.16 176.37 96.87 171.21 97.10 168.82
  A 0.88 0.86 -86.3 0 0 96.27 167.86
  L 96.00 167.85
  A 0.59 0.59 0.0 0 0 95.39 168.44
  L 95.39 173.44
  Q 95.39 174.20 94.63 174.10"
/>
<path stroke="#7fbe6b" vector-effect="non-scaling-stroke" d="
  M 104.10 174.74
  Q 104.55 175.49 105.44 175.74
  A 0.56 0.56 0.0 0 0 106.11 174.98
  L 103.95 169.76
  Q 102.13 165.39 100.31 169.76
  L 98.15 174.95
  Q 97.96 175.39 98.42 175.57
  L 98.70 175.68
  Q 99.33 175.93 99.59 175.31
  Q 100.38 173.40 102.88 173.88
  Q 103.68 174.03 104.10 174.74"
/>
<path stroke="#7fbe6b" vector-effect="non-scaling-stroke" d="
  M 108.69 170.03
  L 107.70 168.45
  Q 107.30 167.81 106.55 167.81
  L 106.22 167.81
  Q 105.50 167.81 105.79 168.46
  C 106.46 170.01 107.88 171.02 107.97 172.79
  Q 108.03 174.02 108.21 175.24
  Q 108.28 175.71 108.76 175.72
  L 109.19 175.72
  A 0.78 0.78 0.0 0 0 109.98 174.85
  Q 109.62 171.57 112.54 168.80
  A 0.59 0.59 0.0 0 0 112.11 167.79
  Q 110.27 167.88 109.71 169.88
  A 0.56 0.56 0.0 0 1 108.69 170.03"
/>
<path stroke="#7fbe6b" vector-effect="non-scaling-stroke" d="
  M 116.18 173.68
  C 117.41 173.64 118.00 174.38 118.52 175.34
  A 0.74 0.74 0.0 0 0 119.45 175.67
  L 119.76 175.55
  A 0.50 0.49 -22.2 0 0 120.04 174.90
  L 117.45 168.52
  A 1.17 1.15 -0.4 0 0 116.79 167.88
  Q 116.08 167.61 115.41 167.89
  Q 115.03 168.04 114.87 168.43
  L 112.01 175.08
  A 0.43 0.43 0.0 0 0 112.37 175.68
  L 112.70 175.71
  A 0.93 0.93 0.0 0 0 113.63 175.18
  Q 114.29 173.74 116.18 173.68"
/>
<path stroke="#716539" vector-effect="non-scaling-stroke" d="
  M 111.02 70.86
  Q 111.50 70.57 111.28 70.10
  C 111.11 69.71 111.04 69.12 111.18 68.71
  Q 111.37 68.19 111.14 67.69
  Q 110.65 66.63 110.87 65.52
  Q 111.14 64.15 109.75 64.14
  L 104.73 64.12
  Q 103.83 64.12 103.86 63.22
  L 103.96 59.26
  Q 104.00 57.90 102.64 57.89
  L 96.50 57.84
  Q 95.08 57.83 95.18 59.25
  L 95.42 62.81
  A 1.25 1.24 87.8 0 1 94.19 64.14
  L 89.40 64.19
  Q 88.07 64.20 88.05 65.54
  L 87.99 71.03
  Q 87.97 72.70 89.64 72.62
  L 94.13 72.40
  A 0.84 0.84 0.0 0 1 94.98 73.03
  Q 95.52 75.09 95.28 77.51
  Q 95.08 79.62 97.19 79.62
  L 102.55 79.62
  Q 103.72 79.62 103.77 78.45
  L 104.00 73.26
  Q 104.04 72.43 104.87 72.46
  Q 107.25 72.57 109.45 72.35
  Q 110.60 72.23 111.30 71.15
  Q 111.35 71.09 111.27 71.10
  Q 111.13 71.14 111.00 70.99
  A 0.09 0.08 54.7 0 1 111.02 70.86"
/>
<path stroke="#978da7" vector-effect="non-scaling-stroke" d="
  M 136.1449 76.4800
  A 5.89 2.32 75.8 0 0 136.9491 70.2009
  A 5.89 2.32 75.8 0 0 133.2551 65.0600
  A 5.89 2.32 75.8 0 0 132.4509 71.3391
  A 5.89 2.32 75.8 0 0 136.1449 76.4800"
/>
<path stroke="#978da7" vector-effect="non-scaling-stroke" d="
  M 141.5141 83.3166
  A 6.21 2.43 91.9 0 0 144.1487 77.1906
  A 6.21 2.43 91.9 0 0 141.9259 70.9034
  A 6.21 2.43 91.9 0 0 139.2913 77.0294
  A 6.21 2.43 91.9 0 0 141.5141 83.3166"
/>
<path stroke="#978da7" vector-effect="non-scaling-stroke" d="
  M 67.88 75.82
  Q 68.22 77.05 68.95 78.16
  Q 69.79 79.42 71.23 78.70
  A 1.40 1.40 0.0 0 0 72.01 77.46
  L 72.02 72.95
  Q 72.02 72.07 71.15 71.94
  Q 67.66 71.44 64.47 72.06
  A 0.77 0.76 89.0 0 0 63.86 72.70
  Q 63.59 74.50 65.51 74.92
  Q 66.20 75.06 66.90 75.07
  A 1.03 1.01 82.1 0 1 67.88 75.82"
/>
<path stroke="#978da7" vector-effect="non-scaling-stroke" d="
  M 134.4485 79.5122
  A 6.51 2.43 8.5 0 0 128.3692 76.1467
  A 6.51 2.43 8.5 0 0 121.5715 77.5878
  A 6.51 2.43 8.5 0 0 127.6508 80.9533
  A 6.51 2.43 8.5 0 0 134.4485 79.5122"
/>
<path stroke="#978da7" vector-effect="non-scaling-stroke" d="
  M 59.81 82.66
  L 60.97 85.33
  A 1.67 1.66 53.0 0 0 63.78 85.73
  C 64.85 84.43 64.52 81.59 64.42 80.02
  Q 64.35 78.91 63.26 78.72
  Q 59.65 78.09 56.62 78.93
  Q 56.19 79.05 55.93 79.41
  Q 55.37 80.19 56.07 81.17
  A 1.53 1.52 -13.7 0 0 57.10 81.79
  L 59.04 82.07
  Q 59.59 82.15 59.81 82.66"
/>
<path stroke="#978da7" vector-effect="non-scaling-stroke" d="
  M 147.0708 92.1654
  A 6.23 2.39 92.2 0 0 149.6982 86.0317
  A 6.23 2.39 92.2 0 0 147.5492 79.7146
  A 6.23 2.39 92.2 0 0 144.9218 85.8483
  A 6.23 2.39 92.2 0 0 147.0708 92.1654"
/>
<path stroke="#978da7" vector-effect="non-scaling-stroke" d="
  M 138.9935 85.5159
  A 6.65 2.34 8.7 0 0 132.7740 82.1969
  A 6.65 2.34 8.7 0 0 125.8465 83.5041
  A 6.65 2.34 8.7 0 0 132.0660 86.8231
  A 6.65 2.34 8.7 0 0 138.9935 85.5159"
/>
<path stroke="#978da7" vector-effect="non-scaling-stroke" d="
  M 54.01 91.06
  Q 54.60 93.44 56.72 94.62
  A 1.60 1.60 0.0 0 0 59.07 93.53
  Q 59.80 89.72 58.34 86.35
  Q 57.92 85.41 56.90 85.41
  C 54.94 85.42 50.45 85.74 48.80 86.92
  A 1.70 1.70 0.0 0 0 49.44 89.97
  Q 51.39 90.38 53.13 90.37
  Q 53.84 90.37 54.01 91.06"
/>
<path stroke="#978da7" vector-effect="non-scaling-stroke" d="
  M 149.9061 100.7103
  A 6.75 2.89 111.5 0 0 155.0689 95.4892
  A 6.75 2.89 111.5 0 0 154.8539 88.1497
  A 6.75 2.89 111.5 0 0 149.6911 93.3708
  A 6.75 2.89 111.5 0 0 149.9061 100.7103"
/>
<path stroke="#978da7" vector-effect="non-scaling-stroke" d="
  M 143.9828 92.1771
  A 6.57 2.34 8.2 0 0 137.8138 88.9239
  A 6.57 2.34 8.2 0 0 130.9772 90.3029
  A 6.57 2.34 8.2 0 0 137.1462 93.5561
  A 6.57 2.34 8.2 0 0 143.9828 92.1771"
/>
<path stroke="#978da7" vector-effect="non-scaling-stroke" d="
  M 50.82 100.84
  Q 52.24 102.03 54.33 102.23
  A 1.85 1.84 -88.2 0 0 56.34 100.33
  C 56.28 98.43 52.58 95.33 51.17 94.17
  A 0.78 0.78 0.0 0 0 50.25 94.12
  Q 46.99 96.28 44.44 99.03
  Q 43.44 100.10 43.98 101.33
  A 1.61 1.60 -22.6 0 0 46.06 102.18
  L 49.77 100.67
  Q 50.34 100.44 50.82 100.84"
/>
<path stroke="#978da7" vector-effect="non-scaling-stroke" d="
  M 146.4312 100.5939
  A 6.45 2.64 21.5 0 0 141.3976 95.7737
  A 6.45 2.64 21.5 0 0 134.4288 95.8661
  A 6.45 2.64 21.5 0 0 139.4624 100.6863
  A 6.45 2.64 21.5 0 0 146.4312 100.5939"
/>
<path stroke="#978da7" vector-effect="non-scaling-stroke" d="
  M 150.6551 111.2688
  A 6.79 2.88 124.9 0 0 156.9020 107.3478
  A 6.79 2.88 124.9 0 0 158.4249 100.1312
  A 6.79 2.88 124.9 0 0 152.1780 104.0522
  A 6.79 2.88 124.9 0 0 150.6551 111.2688"
/>
<path stroke="#978da7" vector-effect="non-scaling-stroke" d="
  M 147.1112 111.3353
  A 6.62 2.81 40.0 0 0 143.8462 104.9274
  A 6.62 2.81 40.0 0 0 136.9688 102.8247
  A 6.62 2.81 40.0 0 0 140.2338 109.2326
  A 6.62 2.81 40.0 0 0 147.1112 111.3353"
/>
<path stroke="#978da7" vector-effect="non-scaling-stroke" d="
  M 50.04 112.56
  C 51.46 113.68 53.84 114.40 55.33 113.00
  A 1.51 1.50 47.3 0 0 55.41 110.89
  Q 53.57 108.86 50.66 107.09
  Q 48.84 105.98 47.46 107.33
  Q 44.90 109.82 43.38 112.52
  A 1.54 1.54 0.0 0 0 44.21 114.72
  C 46.16 115.41 47.67 113.86 48.96 112.61
  Q 49.48 112.11 50.04 112.56"
/>
<path stroke="#978da7" vector-effect="non-scaling-stroke" d="
  M 145.7579 121.3824
  A 6.85 2.74 48.4 0 0 143.2590 114.4408
  A 6.85 2.74 48.4 0 0 136.6621 111.1376
  A 6.85 2.74 48.4 0 0 139.1610 118.0792
  A 6.85 2.74 48.4 0 0 145.7579 121.3824"
/>
<path stroke="#978da7" vector-effect="non-scaling-stroke" d="
  M 158.6676 113.0415
  A 7.00 2.65 -43.5 0 0 151.7659 115.9378
  A 7.00 2.65 -43.5 0 0 148.5124 122.6785
  A 7.00 2.65 -43.5 0 0 155.4141 119.7822
  A 7.00 2.65 -43.5 0 0 158.6676 113.0415"
/>
<path stroke="#978da7" vector-effect="non-scaling-stroke" d="
  M 142.1985 129.0763
  A 6.86 2.75 51.2 0 0 140.0432 122.0068
  A 6.86 2.75 51.2 0 0 133.6015 118.3837
  A 6.86 2.75 51.2 0 0 135.7568 125.4532
  A 6.86 2.75 51.2 0 0 142.1985 129.0763"
/>
<path stroke="#978da7" vector-effect="non-scaling-stroke" d="
  M 52.48 124.34
  Q 55.04 125.47 57.05 123.91
  A 1.61 1.60 -47.1 0 0 56.96 121.31
  Q 54.21 119.49 50.71 118.50
  A 1.72 1.71 23.8 0 0 48.78 119.24
  Q 46.83 122.36 45.64 125.61
  A 1.67 1.67 0.0 0 0 47.30 127.86
  Q 49.66 127.73 50.76 125.04
  Q 51.26 123.80 52.48 124.34"
/>
<path stroke="#978da7" vector-effect="non-scaling-stroke" d="
  M 157.9101 124.5826
  A 6.72 2.65 -24.6 0 0 150.6969 124.9705
  A 6.72 2.65 -24.6 0 0 145.6899 130.1774
  A 6.72 2.65 -24.6 0 0 152.9031 129.7895
  A 6.72 2.65 -24.6 0 0 157.9101 124.5826"
/>
<path stroke="#978da7" vector-effect="non-scaling-stroke" d="
  M 135.5522 138.2715
  A 6.66 2.83 74.3 0 0 136.4744 131.0942
  A 6.66 2.83 74.3 0 0 131.9478 125.4485
  A 6.66 2.83 74.3 0 0 131.0256 132.6258
  A 6.66 2.83 74.3 0 0 135.5522 138.2715"
/>
<path stroke="#978da7" vector-effect="non-scaling-stroke" d="
  M 57.15 134.62
  L 61.42 134.15
  A 1.20 1.20 0.0 0 0 62.25 132.24
  C 60.78 130.28 54.86 127.02 53.24 130.21
  C 52.30 132.09 50.38 135.07 50.68 137.19
  Q 50.88 138.63 52.33 138.51
  Q 55.60 138.23 56.30 135.37
  A 0.99 0.98 3.3 0 1 57.15 134.62"
/>
<path stroke="#978da7" vector-effect="non-scaling-stroke" d="
  M 151.4210 133.6815
  A 6.99 2.70 -22.0 0 0 143.9286 133.7966
  A 6.99 2.70 -22.0 0 0 138.4590 138.9185
  A 6.99 2.70 -22.0 0 0 145.9514 138.8034
  A 6.99 2.70 -22.0 0 0 151.4210 133.6815"
/>
<path stroke="#87283f" vector-effect="non-scaling-stroke" d="
  M 86.51 151.23
  Q 85.66 150.48 88.47 150.00"
/>
<path stroke="#185749" vector-effect="non-scaling-stroke" d="
  M 88.47 150.00
  L 87.80 150.39
  Q 87.38 150.64 87.38 151.13
  L 87.38 151.49
  Q 87.38 152.08 87.96 152.08
  Q 97.91 152.07 108.60 151.99
  Q 115.31 151.94 120.74 152.77
  Q 127.03 153.73 133.15 154.47
  A 0.76 0.75 -88.4 0 0 133.99 153.67
  Q 133.87 151.95 134.45 150.31
  Q 135.64 146.93 136.14 143.70
  Q 136.33 142.47 135.11 142.20
  Q 133.74 141.90 132.27 141.83
  Q 130.79 141.76 129.31 141.36
  Q 124.14 139.97 118.70 139.25
  Q 117.15 139.04 115.62 138.74
  Q 113.89 138.41 112.02 138.32
  Q 97.62 137.63 87.01 138.19
  C 82.64 138.42 78.47 139.44 74.20 139.99
  Q 72.04 140.26 70.18 141.16
  Q 68.27 142.08 65.66 141.86
  Q 63.85 141.70 63.02 143.01
  Q 62.61 143.65 62.88 144.39
  Q 64.73 149.44 66.17 154.14
  A 1.23 1.22 73.9 0 0 67.65 154.96
  C 68.66 154.69 69.40 154.31 70.48 154.20
  Q 76.11 153.62 81.73 153.00
  Q 82.86 152.88 84.14 152.23
  Q 85.23 151.68 86.51 151.23"
/>
<path stroke="#716539" vector-effect="non-scaling-stroke" d="
  M 88.47 150.00
  C 90.48 149.11 90.16 146.23 89.92 144.36
  C 89.26 139.13 79.49 139.69 80.23 146.61
  Q 80.45 148.71 82.30 149.93
  Q 83.96 151.03 86.51 151.23"
/>
<path stroke="#185749" vector-effect="non-scaling-stroke" d="
  M 134.18 156.78
  L 131.57 156.19
  Q 130.56 155.96 130.19 156.92
  L 129.06 159.82
  Q 128.61 160.98 129.74 161.51
  Q 140.81 166.73 153.87 166.02
  A 0.44 0.43 -22.8 0 0 154.17 165.29
  L 146.44 156.95
  A 1.27 1.27 0.0 0 1 146.66 155.04
  L 155.80 148.87
  Q 156.42 148.45 155.67 148.40
  C 149.67 147.96 144.21 148.14 138.41 146.13
  A 0.69 0.69 0.0 0 0 137.52 146.61
  L 134.97 156.30
  Q 134.81 156.93 134.18 156.78"
/>
<path stroke="#185749" vector-effect="non-scaling-stroke" d="
  M 55.97 155.70
  A 0.79 0.79 0.0 0 1 55.88 156.76
  Q 52.55 159.84 49.64 163.26
  Q 49.30 163.66 48.75 163.98
  Q 47.84 164.52 47.81 164.94
  Q 47.75 166.06 48.86 166.16
  Q 61.36 167.29 72.78 161.33
  Q 73.61 160.89 73.25 160.03
  L 71.87 156.77
  Q 71.45 155.76 70.45 156.20
  Q 68.56 157.05 66.54 157.11
  A 1.92 1.91 -9.3 0 1 64.67 155.77
  L 62.21 147.70
  A 1.28 1.28 0.0 0 0 60.89 146.80
  L 45.94 147.94
  Q 44.56 148.05 45.71 148.81
  Q 50.32 151.84 54.79 154.63
  Q 55.48 155.06 55.97 155.70"
/>
<path stroke="#7fbe6b" vector-effect="non-scaling-stroke" d="
  M 112.48 114.08
  C 113.05 117.98 114.05 123.03 116.19 126.48
  Q 116.56 127.07 117.27 127.07
  L 124.52 127.01
  Q 126.54 127.00 126.34 124.98
  L 126.28 124.42
  Q 126.11 122.74 124.42 122.76
  L 121.26 122.81
  A 1.14 1.13 -13.8 0 1 120.23 122.19
  Q 118.35 118.47 118.04 113.90
  Q 117.99 113.20 118.69 113.21
  L 123.19 113.25
  Q 124.65 113.27 124.57 111.81
  L 124.52 110.72
  Q 124.42 109.03 122.72 109.00
  L 119.82 108.95
  A 1.69 1.69 0.0 0 1 118.16 107.13
  Q 118.49 102.98 120.24 98.99
  Q 120.89 97.50 122.48 97.52
  Q 124.51 97.54 124.47 95.51
  L 124.46 94.84
  Q 124.42 93.01 122.59 93.01
  L 116.33 93.01
  A 1.80 1.80 0.0 0 0 114.65 95.47
  L 115.53 97.70
  Q 115.75 98.27 115.61 98.86
  L 113.29 108.23
  A 1.04 1.03 -82.8 0 1 112.29 109.01
  L 107.17 109.00
  Q 106.48 109.00 106.16 108.38
  L 101.79 99.91
  Q 101.37 99.09 101.93 98.37
  Q 103.58 96.22 101.74 93.90
  A 1.09 1.06 -18.6 0 0 100.89 93.49
  L 93.07 93.51
  A 1.05 1.04 -65.7 0 0 92.37 93.78
  C 89.99 95.93 90.80 98.52 93.22 99.99
  Q 97.34 102.49 99.65 107.40
  A 1.09 1.08 -24.5 0 1 99.10 108.85
  Q 96.72 109.89 97.87 113.31
  Q 98.03 113.79 98.54 113.78
  L 101.30 113.74
  Q 102.14 113.73 102.05 114.56
  L 101.16 122.47
  Q 101.09 123.06 100.51 123.18
  C 96.53 124.02 91.61 120.57 88.58 118.22
  A 1.71 1.70 46.3 0 0 86.57 118.17
  Q 82.51 120.95 78.50 123.17
  C 76.67 124.19 74.16 124.03 73.85 121.43
  Q 72.11 106.96 83.28 99.84
  C 86.47 97.81 84.77 93.36 81.22 93.46
  Q 78.26 93.54 75.16 93.49
  C 71.91 93.44 69.59 97.38 73.36 99.25
  A 0.81 0.81 0.0 0 1 73.65 100.46
  C 69.39 106.16 68.85 113.56 69.25 120.69
  C 69.35 122.43 68.75 123.86 68.25 125.48
  A 2.22 2.22 0.0 0 0 69.85 128.30
  C 74.63 129.44 81.45 127.19 85.87 125.39
  A 2.73 2.70 45.3 0 1 87.99 125.41
  Q 95.90 128.78 104.71 127.75
  A 1.70 1.69 -3.4 0 0 106.21 126.07
  C 106.21 124.32 105.26 123.09 105.49 121.38
  Q 106.03 117.49 106.91 113.97
  A 0.80 0.78 -83.2 0 1 107.66 113.37
  L 111.50 113.25
  A 0.97 0.97 0.0 0 1 112.48 114.08"
/>
<path stroke="#80c22b" vector-effect="non-scaling-stroke" d="
  M 179.24 96.92
  Q 179.42 96.71 179.25 96.37
  A 0.46 0.45 80.0 0 0 178.90 96.12
  Q 177.79 95.94 176.76 96.11
  Q 176.06 96.22 176.64 96.62
  L 178.48 97.87
  Q 178.87 98.14 178.99 97.67
  L 179.12 97.15
  Q 179.15 97.02 179.24 96.92"
/>
<path stroke="#7fbe6b" vector-effect="non-scaling-stroke" d="
  M 178.4737 104.7329
  A 1.25 1.25 0.0 0 0 177.6356 103.1764
  L 174.9154 102.3603
  A 1.25 1.25 0.0 0 0 173.3589 103.1984
  L 173.1463 103.9071
  A 1.25 1.25 0.0 0 0 173.9844 105.4636
  L 176.7046 106.2797
  A 1.25 1.25 0.0 0 0 178.2611 105.4416
  L 178.4737 104.7329"
/>
<path stroke="#80c22b" vector-effect="non-scaling-stroke" d="
  M 22.54 105.92
  A 0.25 0.25 0.0 0 0 22.47 105.44
  L 20.84 105.16
  Q 19.95 105.01 20.05 105.91
  L 20.10 106.32
  Q 20.19 107.04 20.84 106.73
  L 22.54 105.92"
/>
<path stroke="#80c22b" vector-effect="non-scaling-stroke" d="
  M 172.47 112.04
  Q 172.91 112.56 173.43 112.97
  Q 174.00 113.43 174.07 112.70
  Q 174.09 112.42 174.25 112.18
  A 0.64 0.64 0.0 0 0 173.89 111.20
  Q 172.99 110.94 172.12 111.24
  Q 171.60 111.42 172.01 111.80
  Q 172.21 111.98 172.47 112.04"
/>
<path stroke="#80c22b" vector-effect="non-scaling-stroke" d="
  M 25.20 117.75
  Q 24.60 117.52 24.50 118.17
  A 1.03 1.03 0.0 0 0 25.82 119.31
  Q 26.33 119.15 26.71 118.57
  Q 26.97 118.18 26.59 117.91
  Q 26.26 117.66 25.81 117.78
  A 1.03 1.02 -42.1 0 1 25.20 117.75"
/>
<path stroke="#80c22b" vector-effect="non-scaling-stroke" d="
  M 30.99 133.49
  L 31.98 132.84
  Q 32.68 132.37 31.87 132.13
  Q 31.24 131.93 30.55 131.95
  Q 29.94 131.96 29.96 132.57
  L 29.98 132.98
  Q 30.02 134.14 30.99 133.49"
/>
<path stroke="#716539" vector-effect="non-scaling-stroke" d="
  M 103.88 147.41
  L 103.38 142.01
  A 2.19 2.19 0.0 0 0 101.00 140.03
  L 98.42 140.27
  A 4.70 4.56 84.7 0 0 94.31 145.37
  L 94.35 145.77
  A 4.70 4.56 84.7 0 0 99.32 150.03
  L 101.90 149.79
  A 2.19 2.19 0.0 0 0 103.88 147.41"
/>
<path stroke="#716539" vector-effect="non-scaling-stroke" d="
  M 118.6463 145.3105
  A 4.45 4.45 0.0 0 0 114.6773 140.4266
  L 113.7024 140.3259
  A 4.45 4.45 0.0 0 0 108.8186 144.2949
  L 108.7137 145.3095
  A 4.45 4.45 0.0 0 0 112.6827 150.1934
  L 113.6576 150.2941
  A 4.45 4.45 0.0 0 0 118.5414 146.3251
  L 118.6463 145.3105"
/>
<path stroke="#716539" vector-effect="non-scaling-stroke" d="
  M 129.99 152.07
  A 0.57 0.57 0.0 0 0 130.70 151.34
  Q 129.90 148.98 130.97 147.76
  Q 133.16 145.28 130.71 142.83
  Q 129.84 141.96 128.47 141.96
  Q 127.03 141.97 125.68 141.89
  A 1.45 1.43 7.9 0 0 124.20 143.00
  L 122.37 150.97
  Q 122.25 151.49 122.57 151.91
  Q 122.88 152.33 123.36 152.13
  Q 123.96 151.89 124.21 151.29
  Q 124.74 150.01 125.30 148.85
  Q 126.00 147.40 127.45 148.01
  Q 127.87 148.19 127.95 148.64
  L 128.30 150.83
  A 1.24 1.23 4.3 0 0 129.15 151.81
  L 129.99 152.07"
/>
<path stroke="#716539" vector-effect="non-scaling-stroke" d="
  M 69.83 146.30
  Q 69.20 145.24 69.98 144.21
  Q 70.36 143.71 69.92 143.25
  Q 69.06 142.35 67.56 143.29
  A 2.15 2.14 67.1 0 0 66.62 145.62
  L 68.47 152.95
  A 0.94 0.94 0.0 0 0 70.03 153.40
  Q 71.77 151.72 74.33 152.08
  A 1.64 1.64 0.0 0 0 76.17 150.15
  Q 75.58 147.00 74.40 143.68
  Q 73.89 142.24 72.43 142.35
  Q 71.88 142.40 71.86 142.95
  C 71.82 143.87 72.41 144.52 72.13 145.49
  Q 71.80 146.62 70.52 146.67
  Q 70.06 146.69 69.83 146.30"
/>
<path stroke="#716539" vector-effect="non-scaling-stroke" d="
  M 101.28 147.39
  L 101.68 143.13
  A 1.10 1.10 0.0 0 0 100.68 141.93
  L 99.47 141.82
  A 2.76 2.50 -84.7 0 0 96.72 144.34
  L 96.64 145.30
  A 2.76 2.50 -84.7 0 0 98.87 148.27
  L 100.09 148.39
  A 1.10 1.10 0.0 0 0 101.28 147.39"
/>
<path stroke="#716539" vector-effect="non-scaling-stroke" d="
  M 111.99 148.24
  L 114.88 148.44
  A 1.20 1.20 0.0 0 0 116.16 147.33
  L 116.27 145.71
  A 3.74 2.19 -86.1 0 0 114.34 141.83
  L 113.42 141.77
  A 3.74 2.19 -86.1 0 0 110.98 145.35
  L 110.87 146.96
  A 1.20 1.20 0.0 0 0 111.99 148.24"
/>
<path stroke="#716539" vector-effect="non-scaling-stroke" d="
  M 85.2008 149.4279
  A 3.46 2.88 88.0 0 0 87.9582 145.8695
  A 3.46 2.88 88.0 0 0 84.9592 142.5121
  A 3.46 2.88 88.0 0 0 82.2018 146.0705
  A 3.46 2.88 88.0 0 0 85.2008 149.4279"
/>
<path stroke="#716539" vector-effect="non-scaling-stroke" d="
  M 129.8617 144.3932
  A 0.81 0.81 0.0 0 0 128.9920 143.6477
  L 126.4993 143.8395
  A 0.81 0.81 0.0 0 0 125.7538 144.7093
  L 125.8183 145.5468
  A 0.81 0.81 0.0 0 0 126.6880 146.2923
  L 129.1807 146.1005
  A 0.81 0.81 0.0 0 0 129.9262 145.2307
  L 129.8617 144.3932"
/>
<path stroke="#716539" vector-effect="non-scaling-stroke" d="
  M 73.7194 149.3162
  A 1.89 1.35 1.4 0 0 71.8630 147.9204
  A 1.89 1.35 1.4 0 0 69.9406 149.2238
  A 1.89 1.35 1.4 0 0 71.7970 150.6196
  A 1.89 1.35 1.4 0 0 73.7194 149.3162"
/>
<path stroke="#80c22b" vector-effect="non-scaling-stroke" d="
  M 101.31 172.07
  Q 101.23 172.21 101.25 172.36
  A 0.40 0.40 0.0 0 0 101.75 172.70
  L 102.48 172.51
  Q 103.03 172.37 103.01 171.81
  Q 102.99 171.11 102.60 170.62
  Q 101.96 169.84 101.57 170.77
  Q 101.37 171.24 101.39 171.74
  Q 101.39 171.92 101.31 172.07"
/>
<path stroke="#80c22b" vector-effect="non-scaling-stroke" d="
  M 115.38 171.88
  Q 115.10 172.34 115.70 172.55
  A 0.83 0.82 -73.6 0 0 116.76 171.97
  Q 116.91 171.38 116.48 170.74
  Q 115.96 169.97 115.51 170.78
  Q 115.23 171.29 115.38 171.88"
/>
</g>
<path fill="#e0352f" d="
  M 96.52 0.00
  L 101.94 0.00
  Q 126.09 9.18 148.03 22.48
  C 149.10 23.13 149.84 24.18 151.07 24.42
  Q 151.57 24.52 151.87 24.94
  Q 152.18 25.39 152.64 25.61
  Q 154.66 26.59 156.34 27.86
  Q 158.24 29.30 159.93 30.44
  Q 168.01 35.87 174.37 41.63
  Q 181.37 47.97 189.14 56.12
  Q 192.16 59.29 197.00 67.00
  L 197.00 76.49
  Q 196.36 79.80 196.01 83.14
  Q 195.66 86.42 195.16 89.82
  Q 194.37 95.23 193.45 100.25
  Q 186.87 136.19 167.66 164.98
  Q 167.14 165.76 166.46 166.45
  C 165.44 167.49 165.00 168.89 164.01 169.95
  Q 157.63 176.79 151.20 178.44
  Q 139.78 181.36 122.24 183.07
  Q 117.17 183.56 113.89 183.65
  Q 109.34 183.78 105.59 184.18
  Q 98.68 184.91 94.23 184.62
  Q 84.83 184.02 74.40 183.23
  Q 73.43 183.16 72.39 183.03
  Q 61.01 181.65 49.01 179.29
  Q 42.35 177.98 37.75 175.00
  Q 32.19 171.39 28.90 165.82
  Q 10.85 135.22 3.84 100.69
  Q 3.36 98.32 1.99 89.76
  Q 1.11 84.30 0.00 78.87
  L 0.00 67.96
  Q 1.74 63.80 4.66 60.14
  Q 12.78 49.96 22.68 41.43
  Q 46.43 20.96 75.19 8.40
  Q 85.80 3.77 96.52 0.00
  Z
  M 181.58 127.16
  Q 182.29 125.68 182.40 124.08
  Q 182.43 123.62 182.85 123.43
  L 183.12 123.31
  Q 183.36 123.20 183.40 122.94
  Q 183.76 120.53 184.52 118.26
  Q 185.18 116.27 185.72 114.18
  Q 191.22 92.86 191.81 71.40
  C 191.89 68.60 191.44 66.54 189.80 64.36
  C 179.54 50.80 165.92 39.37 151.74 30.13
  Q 135.91 19.82 118.12 11.46
  Q 115.80 10.37 113.52 9.49
  Q 110.89 8.48 108.41 7.35
  C 106.07 6.27 103.75 5.82 101.32 5.05
  C 98.41 4.13 95.11 5.31 92.39 6.30
  Q 68.70 14.84 47.46 28.35
  C 32.59 37.81 18.61 49.62 7.83 63.59
  C 5.07 67.16 4.92 71.24 5.27 75.55
  Q 5.64 80.02 5.95 84.43
  C 6.31 89.45 7.51 94.37 8.22 99.44
  Q 8.62 102.35 9.38 105.49
  C 14.29 125.90 22.00 145.19 32.84 163.47
  Q 36.80 170.15 43.37 173.30
  C 45.07 174.12 46.71 174.15 48.42 174.80
  C 51.86 176.09 55.33 176.07 58.84 176.94
  Q 62.10 177.76 65.31 177.93
  C 71.38 178.26 77.31 179.69 83.46 179.88
  Q 96.70 180.29 111.19 179.88
  C 115.51 179.76 119.64 178.99 123.92 178.55
  Q 132.99 177.63 143.14 176.06
  Q 150.12 174.98 153.72 172.88
  Q 158.37 170.16 161.98 165.15
  Q 172.20 150.94 179.04 133.85
  Q 179.85 131.83 180.56 129.70
  Q 180.99 128.40 181.58 127.16
  Z"
/>
<path fill="#008cc1" d="
  M 180.56 129.70
  Q 179.85 131.83 179.04 133.85
  Q 172.20 150.94 161.98 165.15
  Q 158.37 170.16 153.72 172.88
  Q 150.12 174.98 143.14 176.06
  Q 132.99 177.63 123.92 178.55
  C 119.64 178.99 115.51 179.76 111.19 179.88
  Q 96.70 180.29 83.46 179.88
  C 77.31 179.69 71.38 178.26 65.31 177.93
  Q 62.10 177.76 58.84 176.94
  C 55.33 176.07 51.86 176.09 48.42 174.80
  C 46.71 174.15 45.07 174.12 43.37 173.30
  Q 36.80 170.15 32.84 163.47
  C 22.00 145.19 14.29 125.90 9.38 105.49
  Q 8.62 102.35 8.22 99.44
  C 7.51 94.37 6.31 89.45 5.95 84.43
  Q 5.64 80.02 5.27 75.55
  C 4.92 71.24 5.07 67.16 7.83 63.59
  C 18.61 49.62 32.59 37.81 47.46 28.35
  Q 68.70 14.84 92.39 6.30
  C 95.11 5.31 98.41 4.13 101.32 5.05
  C 103.75 5.82 106.07 6.27 108.41 7.35
  Q 110.89 8.48 113.52 9.49
  Q 115.80 10.37 118.12 11.46
  Q 135.91 19.82 151.74 30.13
  C 165.92 39.37 179.54 50.80 189.80 64.36
  C 191.44 66.54 191.89 68.60 191.81 71.40
  Q 191.22 92.86 185.72 114.18
  Q 185.18 116.27 184.52 118.26
  Q 183.76 120.53 183.40 122.94
  Q 183.36 123.20 183.12 123.31
  L 182.85 123.43
  Q 182.43 123.62 182.40 124.08
  Q 182.29 125.68 181.58 127.16
  Q 180.99 128.40 180.56 129.70
  Z
  M 78.75 65.97
  C 74.68 64.41 68.43 62.47 67.56 68.40
  Q 67.47 69.01 66.86 69.11
  C 63.64 69.62 60.57 70.76 61.14 74.88
  Q 61.28 75.87 60.28 76.01
  C 56.98 76.46 52.17 77.07 52.10 81.48
  Q 52.08 82.28 51.68 82.92
  A 1.53 1.50 -81.8 0 1 50.81 83.58
  C 46.61 84.80 42.54 86.74 45.57 92.09
  A 1.68 1.67 55.2 0 1 45.20 94.18
  C 42.29 96.69 38.81 99.82 40.53 104.10
  C 40.98 105.23 42.06 105.86 42.48 107.06
  Q 42.64 107.50 42.39 107.90
  Q 41.35 109.57 40.36 111.22
  C 38.63 114.09 40.03 117.77 42.65 119.43
  A 2.12 2.11 27.3 0 1 43.48 122.01
  Q 40.32 129.81 47.67 133.12
  A 0.92 0.92 0.0 0 1 48.22 134.07
  C 47.89 137.05 47.67 140.55 50.95 142.08
  Q 55.25 144.09 60.59 144.01
  Q 60.69 144.01 60.70 144.10
  L 60.72 144.38
  A 0.48 0.48 0.0 0 1 60.31 144.89
  Q 49.89 146.18 40.09 146.16
  Q 38.87 146.16 39.88 146.84
  L 52.60 155.50
  Q 53.56 156.15 52.76 156.98
  L 43.49 166.72
  A 0.66 0.66 0.0 0 0 43.93 167.83
  Q 46.79 168.03 49.97 168.19
  Q 63.40 168.90 74.95 162.13
  Q 75.99 161.52 75.50 160.41
  L 73.96 156.89
  Q 73.47 155.77 74.68 155.59
  Q 100.48 151.77 127.39 155.29
  Q 128.81 155.48 128.29 156.82
  L 126.61 161.18
  A 0.83 0.82 24.2 0 0 127.01 162.21
  C 136.95 167.32 146.96 168.56 157.88 167.84
  Q 158.79 167.78 158.19 167.10
  L 149.27 156.98
  Q 148.66 156.29 149.41 155.73
  Q 155.73 151.04 162.07 147.01
  Q 163.70 145.97 161.77 146.18
  Q 151.66 147.24 140.79 144.99
  Q 139.71 144.76 138.70 144.31
  Q 138.19 144.08 138.18 143.53
  Q 138.15 142.68 138.69 142.05
  Q 139.08 141.61 139.69 141.55
  Q 148.52 140.76 154.03 134.37
  Q 155.26 132.94 153.77 131.79
  A 0.58 0.58 0.0 0 1 153.84 130.83
  C 156.15 129.45 159.69 127.30 160.56 124.65
  Q 160.75 124.09 160.40 123.63
  Q 159.15 121.94 156.87 122.10
  Q 154.67 122.24 156.29 120.75
  C 158.74 118.47 164.44 112.33 158.21 110.09
  Q 157.50 109.83 157.90 109.19
  C 159.20 107.10 160.32 104.96 161.15 102.63
  C 162.23 99.62 160.48 97.33 157.13 98.22
  Q 155.32 98.70 156.09 96.99
  Q 158.02 92.70 157.50 87.33
  C 157.19 84.15 153.62 85.93 152.25 86.78
  A 0.51 0.51 0.0 0 1 151.48 86.40
  C 151.22 83.66 151.31 80.91 149.85 78.43
  C 149.15 77.25 147.69 77.27 146.82 78.20
  A 0.67 0.66 -25.5 0 1 145.67 77.80
  C 145.47 74.89 144.97 70.89 143.10 68.57
  Q 142.73 68.12 142.26 68.46
  Q 140.78 69.52 139.78 70.98
  Q 138.80 72.40 138.49 70.71
  Q 137.75 66.80 134.71 64.18
  A 2.06 2.05 30.8 0 0 131.45 65.00
  Q 130.67 67.04 130.88 69.70
  Q 130.96 70.76 130.13 70.10
  Q 125.87 66.70 120.44 66.63
  C 120.50 60.64 115.20 57.13 109.53 57.84
  A 1.36 1.35 79.1 0 1 108.05 56.83
  C 107.22 53.69 105.86 50.91 102.48 49.97
  Q 99.51 49.14 96.48 49.58
  C 93.03 50.08 90.54 54.17 89.42 57.11
  Q 89.21 57.69 88.59 57.72
  Q 80.34 58.15 78.75 65.97
  Z
  M 181.58 96.00
  L 182.68 95.88
  A 0.88 0.87 -5.1 0 0 183.46 94.95
  L 183.43 94.57
  A 0.48 0.48 0.0 0 0 182.95 94.13
  Q 178.86 94.18 174.77 95.15
  A 0.98 0.98 0.0 0 0 174.42 96.89
  L 180.58 101.39
  A 0.47 0.47 0.0 0 0 181.25 101.27
  L 181.41 101.04
  Q 181.72 100.57 181.27 100.23
  Q 179.65 99.00 180.78 96.58
  A 0.99 0.98 8.8 0 1 181.58 96.00
  Z
  M 20.21 98.94
  C 20.72 98.19 21.56 97.75 21.93 96.89
  Q 22.10 96.48 21.97 96.07
  A 0.80 0.79 53.0 0 0 20.56 95.87
  Q 18.05 99.52 14.75 100.33
  Q 14.09 100.50 14.49 101.05
  L 14.69 101.32
  Q 15.06 101.84 15.66 101.65
  C 17.10 101.22 18.45 100.85 19.97 101.25
  Q 21.77 101.72 23.48 101.74
  Q 24.09 101.74 23.84 101.18
  L 23.71 100.90
  A 1.48 1.45 -7.2 0 0 22.62 100.07
  L 20.55 99.74
  Q 19.75 99.61 20.21 98.94
  Z
  M 171.89 106.78
  L 178.34 108.28
  A 0.89 0.89 0.0 0 0 179.41 107.62
  L 179.94 105.30
  A 3.60 3.41 13.1 0 0 177.21 101.16
  L 176.04 100.89
  A 3.60 3.41 13.1 0 0 171.76 103.40
  L 171.22 105.71
  A 0.89 0.89 0.0 0 0 171.89 106.78
  Z
  M 18.71 106.17
  A 1.88 1.88 0.0 0 1 18.67 108.40
  Q 17.99 109.31 17.98 110.37
  Q 17.97 111.40 18.77 110.75
  L 24.85 105.81
  A 1.04 1.04 0.0 0 0 24.23 103.96
  L 16.53 103.71
  Q 16.00 103.70 16.04 104.22
  L 16.08 104.70
  Q 16.12 105.20 16.63 105.20
  Q 18.04 105.21 18.71 106.17
  Z
  M 25.62 112.12
  Q 23.79 111.88 25.28 110.80
  Q 26.80 109.68 26.14 108.36
  A 0.73 0.73 0.0 0 0 24.84 108.35
  Q 23.04 111.82 19.96 112.44
  A 0.84 0.84 0.0 0 0 19.29 113.35
  L 19.33 113.65
  A 0.44 0.44 0.0 0 0 19.88 114.03
  Q 23.69 112.98 27.57 114.18
  Q 28.11 114.35 28.14 113.78
  Q 28.16 113.35 27.83 113.08
  Q 26.88 112.29 25.62 112.12
  Z
  M 175.44 113.28
  Q 175.84 111.33 177.31 111.02
  Q 177.81 110.92 178.06 110.48
  L 178.41 109.87
  Q 178.72 109.32 178.09 109.38
  Q 174.17 109.79 170.66 109.92
  Q 170.00 109.94 169.51 110.41
  Q 168.72 111.16 170.27 112.60
  A 2.31 1.73 0.0 0 0 170.63 112.87
  Q 172.65 114.01 174.17 115.45
  Q 174.89 116.12 175.94 116.27
  Q 176.80 116.39 176.50 115.57
  Q 176.23 114.82 175.69 114.22
  Q 175.33 113.81 175.44 113.28
  Z
  M 23.65 120.66
  Q 23.34 121.27 22.75 121.59
  A 0.63 0.63 0.0 0 0 22.51 122.46
  L 22.69 122.74
  Q 22.96 123.19 23.40 122.91
  Q 26.73 120.77 29.35 118.05
  A 1.12 1.12 0.0 0 0 28.67 116.16
  Q 24.73 115.75 20.50 116.25
  Q 19.87 116.33 20.18 116.88
  L 20.33 117.13
  A 0.95 0.94 -17.2 0 0 21.25 117.61
  Q 23.33 117.43 23.76 119.95
  Q 23.83 120.32 23.65 120.66
  Z
  M 169.51 119.53
  Q 168.89 120.83 168.17 119.57
  Q 167.49 118.36 168.95 117.74
  Q 169.51 117.51 169.84 117.03
  Q 170.67 115.82 169.21 115.98
  C 166.55 116.29 165.26 121.19 168.63 121.54
  C 171.08 121.79 171.22 119.26 172.51 118.13
  Q 173.28 117.45 173.99 118.71
  A 1.36 1.36 0.0 0 1 173.50 120.55
  L 171.50 121.74
  Q 171.04 122.01 171.39 122.42
  Q 171.99 123.10 172.77 122.83
  Q 175.15 121.97 175.48 119.17
  Q 175.62 118.01 174.74 117.26
  C 172.51 115.34 170.41 117.64 169.51 119.53
  Z
  M 25.95 127.44
  Q 25.08 126.24 25.97 124.26
  Q 26.45 123.20 25.30 123.39
  Q 24.87 123.46 24.45 123.66
  Q 23.86 123.93 23.84 124.59
  C 23.75 127.38 24.79 130.12 28.31 128.86
  Q 29.13 128.57 29.11 127.70
  L 29.07 124.42
  Q 29.07 123.79 29.70 123.83
  Q 30.05 123.85 30.37 124.01
  Q 31.06 124.35 30.94 125.11
  Q 30.83 125.81 30.30 126.41
  Q 29.70 127.08 30.53 127.44
  L 30.77 127.55
  A 0.91 0.91 0.0 0 0 31.95 127.10
  C 34.47 121.78 26.07 119.31 27.63 126.70
  A 0.94 0.94 0.0 0 1 25.95 127.44
  Z
  M 169.60 129.95
  C 172.51 130.50 173.79 126.77 172.51 124.70
  Q 172.22 124.21 171.67 124.06
  L 166.26 122.55
  A 0.77 0.77 0.0 0 0 165.32 123.03
  L 165.23 123.28
  A 0.40 0.39 19.3 0 0 165.48 123.79
  L 170.92 125.63
  Q 171.95 125.98 171.63 127.02
  Q 171.31 128.11 168.90 127.99
  Q 167.97 127.94 167.09 127.64
  L 164.67 126.81
  A 0.44 0.44 0.0 0 0 164.08 127.18
  L 164.01 127.81
  A 0.76 0.74 -77.9 0 0 164.51 128.60
  Q 166.99 129.45 169.60 129.95
  Z
  M 165.73 133.02
  L 165.05 134.46
  A 0.95 0.95 0.0 0 1 163.62 134.81
  Q 162.41 133.90 161.43 134.96
  Q 160.98 135.44 161.58 135.70
  Q 165.28 137.31 168.83 137.94
  Q 169.40 138.04 169.48 137.46
  L 169.54 137.01
  A 0.83 0.83 0.0 0 0 168.76 136.07
  L 166.76 135.96
  Q 166.14 135.93 166.36 135.35
  L 167.06 133.49
  Q 167.32 132.81 168.02 132.99
  L 170.70 133.66
  A 0.34 0.34 0.0 0 0 171.12 133.41
  L 171.20 133.09
  A 0.91 0.91 0.0 0 0 170.60 132.01
  L 164.03 129.87
  A 0.75 0.75 0.0 0 0 163.06 130.44
  Q 162.78 131.97 165.07 131.97
  Q 166.23 131.97 165.73 133.02
  Z
  M 33.14 139.30
  L 30.94 141.96
  Q 28.84 144.49 32.09 143.96
  Q 35.17 143.46 38.09 141.73
  Q 38.58 141.44 38.20 141.01
  L 37.99 140.76
  A 0.51 0.51 0.0 0 0 37.46 140.62
  L 35.49 141.29
  Q 31.95 142.51 34.79 140.03
  Q 36.05 138.93 36.43 137.83
  Q 37.23 135.50 34.94 136.41
  Q 32.53 137.36 30.27 137.94
  Q 27.45 138.67 29.62 136.73
  Q 31.40 135.13 33.59 133.57
  Q 36.80 131.27 32.89 130.67
  Q 29.76 130.20 26.10 130.15
  Q 25.29 130.14 25.63 130.88
  L 25.78 131.22
  Q 26.10 131.91 26.86 132.00
  Q 28.57 132.19 28.73 134.16
  C 28.79 134.93 28.41 135.46 28.06 136.09
  A 1.25 1.24 40.9 0 0 28.16 137.43
  Q 28.70 138.14 28.78 139.05
  Q 28.85 139.96 29.74 139.74
  L 32.93 138.95
  Q 33.57 138.79 33.14 139.30
  Z
  M 85.18 171.92
  Q 84.46 170.55 84.35 168.93
  Q 84.31 168.37 83.86 168.04
  Q 83.07 167.46 82.07 167.97
  Q 81.64 168.19 81.53 168.66
  Q 81.07 170.51 80.70 172.29
  Q 80.68 172.41 80.55 172.44
  Q 80.42 172.47 80.28 172.49
  Q 80.16 172.51 80.15 172.38
  Q 80.08 170.29 79.27 168.42
  Q 79.02 167.83 78.39 167.71
  Q 78.21 167.68 78.06 167.76
  Q 77.50 168.03 77.65 168.63
  L 79.19 174.92
  A 1.13 1.12 51.7 0 0 81.28 175.17
  Q 82.07 173.62 82.19 171.85
  Q 82.30 170.18 83.23 171.57
  Q 84.12 172.91 84.18 174.75
  Q 84.19 175.32 84.73 175.54
  Q 85.26 175.76 85.82 175.53
  Q 86.33 175.32 86.50 174.79
  Q 87.54 171.46 87.99 168.44
  A 0.52 0.52 0.0 0 0 87.65 167.88
  L 87.26 167.74
  Q 86.43 167.44 86.28 168.31
  L 85.69 171.84
  Q 85.55 172.65 85.18 171.92
  Z
  M 90.8431 168.3666
  A 0.51 0.51 0.0 0 0 90.3367 167.8530
  L 89.4967 167.8472
  A 0.51 0.51 0.0 0 0 88.9831 168.3536
  L 88.9369 174.9734
  A 0.51 0.51 0.0 0 0 89.4433 175.4870
  L 90.2833 175.4928
  A 0.51 0.51 0.0 0 0 90.7969 174.9864
  L 90.8431 168.3666
  Z
  M 94.63 174.10
  Q 93.44 173.94 92.62 172.97
  A 0.34 0.34 0.0 0 0 92.04 173.09
  Q 91.33 175.33 93.76 175.70
  C 98.16 176.37 96.87 171.21 97.10 168.82
  A 0.88 0.86 -86.3 0 0 96.27 167.86
  L 96.00 167.85
  A 0.59 0.59 0.0 0 0 95.39 168.44
  L 95.39 173.44
  Q 95.39 174.20 94.63 174.10
  Z
  M 104.10 174.74
  Q 104.55 175.49 105.44 175.74
  A 0.56 0.56 0.0 0 0 106.11 174.98
  L 103.95 169.76
  Q 102.13 165.39 100.31 169.76
  L 98.15 174.95
  Q 97.96 175.39 98.42 175.57
  L 98.70 175.68
  Q 99.33 175.93 99.59 175.31
  Q 100.38 173.40 102.88 173.88
  Q 103.68 174.03 104.10 174.74
  Z
  M 108.69 170.03
  L 107.70 168.45
  Q 107.30 167.81 106.55 167.81
  L 106.22 167.81
  Q 105.50 167.81 105.79 168.46
  C 106.46 170.01 107.88 171.02 107.97 172.79
  Q 108.03 174.02 108.21 175.24
  Q 108.28 175.71 108.76 175.72
  L 109.19 175.72
  A 0.78 0.78 0.0 0 0 109.98 174.85
  Q 109.62 171.57 112.54 168.80
  A 0.59 0.59 0.0 0 0 112.11 167.79
  Q 110.27 167.88 109.71 169.88
  A 0.56 0.56 0.0 0 1 108.69 170.03
  Z
  M 116.18 173.68
  C 117.41 173.64 118.00 174.38 118.52 175.34
  A 0.74 0.74 0.0 0 0 119.45 175.67
  L 119.76 175.55
  A 0.50 0.49 -22.2 0 0 120.04 174.90
  L 117.45 168.52
  A 1.17 1.15 -0.4 0 0 116.79 167.88
  Q 116.08 167.61 115.41 167.89
  Q 115.03 168.04 114.87 168.43
  L 112.01 175.08
  A 0.43 0.43 0.0 0 0 112.37 175.68
  L 112.70 175.71
  A 0.93 0.93 0.0 0 0 113.63 175.18
  Q 114.29 173.74 116.18 173.68
  Z"
/>
<path fill="#019442" d="
  M 120.44 66.63
  L 120.38 67.95
  Q 119.99 68.81 120.33 69.79
  Q 119.31 70.10 119.26 71.18
  Q 117.21 72.37 115.83 74.42
  A 1.37 1.35 -34.4 0 0 115.63 75.46
  C 116.66 80.42 115.52 84.50 110.60 86.68
  Q 107.59 88.01 105.01 87.27
  C 102.95 86.67 100.73 84.94 98.52 85.71
  C 96.20 86.51 93.98 87.94 91.40 87.50
  Q 85.18 86.44 83.78 80.79
  C 83.32 78.89 83.67 77.08 83.93 75.20
  Q 84.00 74.64 83.64 74.21
  Q 82.39 72.73 80.79 72.28
  Q 80.21 69.62 78.82 69.67
  L 78.55 67.44
  Q 78.96 67.79 78.75 65.97
  Q 80.34 58.15 88.59 57.72
  Q 89.21 57.69 89.42 57.11
  C 90.54 54.17 93.03 50.08 96.48 49.58
  Q 99.51 49.14 102.48 49.97
  C 105.86 50.91 107.22 53.69 108.05 56.83
  A 1.36 1.35 79.1 0 0 109.53 57.84
  C 115.20 57.13 120.50 60.64 120.44 66.63
  Z
  M 111.02 70.86
  Q 111.50 70.57 111.28 70.10
  C 111.11 69.71 111.04 69.12 111.18 68.71
  Q 111.37 68.19 111.14 67.69
  Q 110.65 66.63 110.87 65.52
  Q 111.14 64.15 109.75 64.14
  L 104.73 64.12
  Q 103.83 64.12 103.86 63.22
  L 103.96 59.26
  Q 104.00 57.90 102.64 57.89
  L 96.50 57.84
  Q 95.08 57.83 95.18 59.25
  L 95.42 62.81
  A 1.25 1.24 87.8 0 1 94.19 64.14
  L 89.40 64.19
  Q 88.07 64.20 88.05 65.54
  L 87.99 71.03
  Q 87.97 72.70 89.64 72.62
  L 94.13 72.40
  A 0.84 0.84 0.0 0 1 94.98 73.03
  Q 95.52 75.09 95.28 77.51
  Q 95.08 79.62 97.19 79.62
  L 102.55 79.62
  Q 103.72 79.62 103.77 78.45
  L 104.00 73.26
  Q 104.04 72.43 104.87 72.46
  Q 107.25 72.57 109.45 72.35
  Q 110.60 72.23 111.30 71.15
  Q 111.35 71.09 111.27 71.10
  Q 111.13 71.14 111.00 70.99
  A 0.09 0.08 54.7 0 1 111.02 70.86
  Z"
/>
<path fill="#e0352f" d="
  M 111.00 70.99
  Q 111.13 71.14 111.27 71.10
  Q 111.35 71.09 111.30 71.15
  Q 110.60 72.23 109.45 72.35
  Q 107.25 72.57 104.87 72.46
  Q 104.04 72.43 104.00 73.26
  L 103.77 78.45
  Q 103.72 79.62 102.55 79.62
  L 97.19 79.62
  Q 95.08 79.62 95.28 77.51
  Q 95.52 75.09 94.98 73.03
  A 0.84 0.84 0.0 0 0 94.13 72.40
  L 89.64 72.62
  Q 87.97 72.70 87.99 71.03
  L 88.05 65.54
  Q 88.07 64.20 89.40 64.19
  L 94.19 64.14
  A 1.25 1.24 87.8 0 0 95.42 62.81
  L 95.18 59.25
  Q 95.08 57.83 96.50 57.84
  L 102.64 57.89
  Q 104.00 57.90 103.96 59.26
  L 103.86 63.22
  Q 103.83 64.12 104.73 64.12
  L 109.75 64.14
  Q 111.14 64.15 110.87 65.52
  Q 110.65 66.63 111.14 67.69
  Q 111.37 68.19 111.18 68.71
  C 111.04 69.12 111.11 69.71 111.28 70.10
  Q 111.50 70.57 111.02 70.86
  A 0.09 0.08 54.7 0 0 111.00 70.99
  Z"
/>
<path fill="#2e1a4f" d="
  M 78.75 65.97
  Q 78.96 67.79 78.55 67.44
  L 71.61 66.78
  Q 71.01 66.72 70.86 67.31
  C 70.39 69.15 72.65 69.87 74.00 70.13
  Q 74.51 70.23 74.50 70.76
  Q 74.46 72.20 75.15 73.46
  A 1.54 1.54 0.0 0 0 78.00 73.08
  L 78.82 69.67
  Q 80.21 69.62 80.79 72.28
  C 80.16 74.26 79.25 76.11 77.21 76.86
  Q 75.94 77.32 74.74 77.94
  A 1.53 1.51 88.5 0 0 74.02 78.71
  C 72.57 82.12 70.31 81.73 67.35 82.68
  Q 66.67 82.90 66.47 83.59
  C 65.81 85.89 65.23 87.88 62.91 89.05
  C 61.91 89.56 61.51 90.45 61.52 91.55
  Q 61.58 94.95 59.52 97.58
  Q 59.22 97.96 59.19 98.45
  C 59.02 101.59 60.02 104.23 57.80 106.90
  A 2.42 2.42 0.0 0 0 57.62 109.77
  Q 59.97 113.41 58.03 117.03
  A 1.97 1.96 -53.4 0 0 58.36 119.32
  C 60.01 120.99 60.97 122.97 60.85 125.27
  C 60.67 128.49 61.80 128.62 63.93 130.34
  C 66.93 132.77 66.16 136.37 64.96 139.51
  A 0.52 0.52 0.0 0 0 65.62 140.19
  Q 68.49 139.20 71.82 138.63
  C 83.72 136.59 94.75 135.65 106.74 136.37
  Q 119.82 137.16 132.63 139.73
  Q 134.05 140.02 133.14 138.88
  Q 133.11 138.85 132.73 138.65
  Q 132.18 138.37 131.90 137.81
  C 130.75 135.47 126.64 124.80 131.09 123.84
  Q 132.63 123.51 131.94 122.10
  Q 129.93 117.99 132.80 116.78
  C 133.55 116.47 134.47 116.69 135.26 116.72
  Q 136.18 116.75 135.69 115.98
  C 134.11 113.47 133.05 110.31 136.68 109.12
  A 0.60 0.60 0.0 0 0 136.93 108.14
  Q 134.62 105.68 134.50 102.88
  A 1.15 1.14 -21.5 0 1 134.90 101.97
  Q 135.07 101.82 135.27 101.74
  Q 136.94 101.07 135.42 100.10
  C 133.79 99.05 130.86 96.71 132.60 94.50
  A 0.57 0.56 33.3 0 0 132.42 93.66
  Q 130.76 92.79 129.62 91.41
  Q 128.39 89.93 130.15 88.87
  A 0.60 0.60 0.0 0 0 130.01 87.78
  Q 126.39 86.70 123.79 84.04
  Q 123.39 83.64 123.29 83.10
  Q 123.21 82.65 123.45 82.25
  Q 123.77 81.74 123.28 81.39
  L 119.85 78.92
  A 1.59 1.59 0.0 0 1 120.32 76.11
  L 122.69 75.39
  A 0.72 0.71 56.0 0 0 122.93 74.15
  L 119.26 71.18
  Q 119.31 70.10 120.33 69.79
  Q 123.61 73.63 129.82 74.94
  Q 130.98 75.18 131.20 74.02
  C 131.44 72.75 130.47 72.06 129.62 71.31
  Q 125.54 67.72 120.38 67.95
  L 120.44 66.63
  Q 125.87 66.70 130.13 70.10
  Q 130.96 70.76 130.88 69.70
  Q 130.67 67.04 131.45 65.00
  A 2.06 2.05 30.8 0 1 134.71 64.18
  Q 137.75 66.80 138.49 70.71
  Q 138.80 72.40 139.78 70.98
  Q 140.78 69.52 142.26 68.46
  Q 142.73 68.12 143.10 68.57
  C 144.97 70.89 145.47 74.89 145.67 77.80
  A 0.67 0.66 -25.5 0 0 146.82 78.20
  C 147.69 77.27 149.15 77.25 149.85 78.43
  C 151.31 80.91 151.22 83.66 151.48 86.40
  A 0.51 0.51 0.0 0 0 152.25 86.78
  C 153.62 85.93 157.19 84.15 157.50 87.33
  Q 158.02 92.70 156.09 96.99
  Q 155.32 98.70 157.13 98.22
  C 160.48 97.33 162.23 99.62 161.15 102.63
  C 160.32 104.96 159.20 107.10 157.90 109.19
  Q 157.50 109.83 158.21 110.09
  C 164.44 112.33 158.74 118.47 156.29 120.75
  Q 154.67 122.24 156.87 122.10
  Q 159.15 121.94 160.40 123.63
  Q 160.75 124.09 160.56 124.65
  C 159.69 127.30 156.15 129.45 153.84 130.83
  A 0.58 0.58 0.0 0 0 153.77 131.79
  Q 155.26 132.94 154.03 134.37
  Q 148.52 140.76 139.69 141.55
  Q 139.08 141.61 138.69 142.05
  Q 138.15 142.68 138.18 143.53
  Q 138.19 144.08 138.70 144.31
  Q 139.71 144.76 140.79 144.99
  Q 151.66 147.24 161.77 146.18
  Q 163.70 145.97 162.07 147.01
  Q 155.73 151.04 149.41 155.73
  Q 148.66 156.29 149.27 156.98
  L 158.19 167.10
  Q 158.79 167.78 157.88 167.84
  C 146.96 168.56 136.95 167.32 127.01 162.21
  A 0.83 0.82 24.2 0 1 126.61 161.18
  L 128.29 156.82
  Q 128.81 155.48 127.39 155.29
  Q 100.48 151.77 74.68 155.59
  Q 73.47 155.77 73.96 156.89
  L 75.50 160.41
  Q 75.99 161.52 74.95 162.13
  Q 63.40 168.90 49.97 168.19
  Q 46.79 168.03 43.93 167.83
  A 0.66 0.66 0.0 0 1 43.49 166.72
  L 52.76 156.98
  Q 53.56 156.15 52.60 155.50
  L 39.88 146.84
  Q 38.87 146.16 40.09 146.16
  Q 49.89 146.18 60.31 144.89
  A 0.48 0.48 0.0 0 0 60.72 144.38
  L 60.70 144.10
  Q 60.69 144.01 60.59 144.01
  Q 55.25 144.09 50.95 142.08
  C 47.67 140.55 47.89 137.05 48.22 134.07
  A 0.92 0.92 0.0 0 0 47.67 133.12
  Q 40.32 129.81 43.48 122.01
  A 2.12 2.11 27.3 0 0 42.65 119.43
  C 40.03 117.77 38.63 114.09 40.36 111.22
  Q 41.35 109.57 42.39 107.90
  Q 42.64 107.50 42.48 107.06
  C 42.06 105.86 40.98 105.23 40.53 104.10
  C 38.81 99.82 42.29 96.69 45.20 94.18
  A 1.68 1.67 55.2 0 0 45.57 92.09
  C 42.54 86.74 46.61 84.80 50.81 83.58
  A 1.53 1.50 -81.8 0 0 51.68 82.92
  Q 52.08 82.28 52.10 81.48
  C 52.17 77.07 56.98 76.46 60.28 76.01
  Q 61.28 75.87 61.14 74.88
  C 60.57 70.76 63.64 69.62 66.86 69.11
  Q 67.47 69.01 67.56 68.40
  C 68.43 62.47 74.68 64.41 78.75 65.97
  Z
  M 136.1449 76.4800
  A 5.89 2.32 75.8 0 0 136.9491 70.2009
  A 5.89 2.32 75.8 0 0 133.2551 65.0600
  A 5.89 2.32 75.8 0 0 132.4509 71.3391
  A 5.89 2.32 75.8 0 0 136.1449 76.4800
  Z
  M 141.5141 83.3166
  A 6.21 2.43 91.9 0 0 144.1487 77.1906
  A 6.21 2.43 91.9 0 0 141.9259 70.9034
  A 6.21 2.43 91.9 0 0 139.2913 77.0294
  A 6.21 2.43 91.9 0 0 141.5141 83.3166
  Z
  M 67.88 75.82
  Q 68.22 77.05 68.95 78.16
  Q 69.79 79.42 71.23 78.70
  A 1.40 1.40 0.0 0 0 72.01 77.46
  L 72.02 72.95
  Q 72.02 72.07 71.15 71.94
  Q 67.66 71.44 64.47 72.06
  A 0.77 0.76 89.0 0 0 63.86 72.70
  Q 63.59 74.50 65.51 74.92
  Q 66.20 75.06 66.90 75.07
  A 1.03 1.01 82.1 0 1 67.88 75.82
  Z
  M 134.4485 79.5122
  A 6.51 2.43 8.5 0 0 128.3692 76.1467
  A 6.51 2.43 8.5 0 0 121.5715 77.5878
  A 6.51 2.43 8.5 0 0 127.6508 80.9533
  A 6.51 2.43 8.5 0 0 134.4485 79.5122
  Z
  M 59.81 82.66
  L 60.97 85.33
  A 1.67 1.66 53.0 0 0 63.78 85.73
  C 64.85 84.43 64.52 81.59 64.42 80.02
  Q 64.35 78.91 63.26 78.72
  Q 59.65 78.09 56.62 78.93
  Q 56.19 79.05 55.93 79.41
  Q 55.37 80.19 56.07 81.17
  A 1.53 1.52 -13.7 0 0 57.10 81.79
  L 59.04 82.07
  Q 59.59 82.15 59.81 82.66
  Z
  M 147.0708 92.1654
  A 6.23 2.39 92.2 0 0 149.6982 86.0317
  A 6.23 2.39 92.2 0 0 147.5492 79.7146
  A 6.23 2.39 92.2 0 0 144.9218 85.8483
  A 6.23 2.39 92.2 0 0 147.0708 92.1654
  Z
  M 138.9935 85.5159
  A 6.65 2.34 8.7 0 0 132.7740 82.1969
  A 6.65 2.34 8.7 0 0 125.8465 83.5041
  A 6.65 2.34 8.7 0 0 132.0660 86.8231
  A 6.65 2.34 8.7 0 0 138.9935 85.5159
  Z
  M 54.01 91.06
  Q 54.60 93.44 56.72 94.62
  A 1.60 1.60 0.0 0 0 59.07 93.53
  Q 59.80 89.72 58.34 86.35
  Q 57.92 85.41 56.90 85.41
  C 54.94 85.42 50.45 85.74 48.80 86.92
  A 1.70 1.70 0.0 0 0 49.44 89.97
  Q 51.39 90.38 53.13 90.37
  Q 53.84 90.37 54.01 91.06
  Z
  M 149.9061 100.7103
  A 6.75 2.89 111.5 0 0 155.0689 95.4892
  A 6.75 2.89 111.5 0 0 154.8539 88.1497
  A 6.75 2.89 111.5 0 0 149.6911 93.3708
  A 6.75 2.89 111.5 0 0 149.9061 100.7103
  Z
  M 143.9828 92.1771
  A 6.57 2.34 8.2 0 0 137.8138 88.9239
  A 6.57 2.34 8.2 0 0 130.9772 90.3029
  A 6.57 2.34 8.2 0 0 137.1462 93.5561
  A 6.57 2.34 8.2 0 0 143.9828 92.1771
  Z
  M 50.82 100.84
  Q 52.24 102.03 54.33 102.23
  A 1.85 1.84 -88.2 0 0 56.34 100.33
  C 56.28 98.43 52.58 95.33 51.17 94.17
  A 0.78 0.78 0.0 0 0 50.25 94.12
  Q 46.99 96.28 44.44 99.03
  Q 43.44 100.10 43.98 101.33
  A 1.61 1.60 -22.6 0 0 46.06 102.18
  L 49.77 100.67
  Q 50.34 100.44 50.82 100.84
  Z
  M 146.4312 100.5939
  A 6.45 2.64 21.5 0 0 141.3976 95.7737
  A 6.45 2.64 21.5 0 0 134.4288 95.8661
  A 6.45 2.64 21.5 0 0 139.4624 100.6863
  A 6.45 2.64 21.5 0 0 146.4312 100.5939
  Z
  M 150.6551 111.2688
  A 6.79 2.88 124.9 0 0 156.9020 107.3478
  A 6.79 2.88 124.9 0 0 158.4249 100.1312
  A 6.79 2.88 124.9 0 0 152.1780 104.0522
  A 6.79 2.88 124.9 0 0 150.6551 111.2688
  Z
  M 147.1112 111.3353
  A 6.62 2.81 40.0 0 0 143.8462 104.9274
  A 6.62 2.81 40.0 0 0 136.9688 102.8247
  A 6.62 2.81 40.0 0 0 140.2338 109.2326
  A 6.62 2.81 40.0 0 0 147.1112 111.3353
  Z
  M 50.04 112.56
  C 51.46 113.68 53.84 114.40 55.33 113.00
  A 1.51 1.50 47.3 0 0 55.41 110.89
  Q 53.57 108.86 50.66 107.09
  Q 48.84 105.98 47.46 107.33
  Q 44.90 109.82 43.38 112.52
  A 1.54 1.54 0.0 0 0 44.21 114.72
  C 46.16 115.41 47.67 113.86 48.96 112.61
  Q 49.48 112.11 50.04 112.56
  Z
  M 145.7579 121.3824
  A 6.85 2.74 48.4 0 0 143.2590 114.4408
  A 6.85 2.74 48.4 0 0 136.6621 111.1376
  A 6.85 2.74 48.4 0 0 139.1610 118.0792
  A 6.85 2.74 48.4 0 0 145.7579 121.3824
  Z
  M 158.6676 113.0415
  A 7.00 2.65 -43.5 0 0 151.7659 115.9378
  A 7.00 2.65 -43.5 0 0 148.5124 122.6785
  A 7.00 2.65 -43.5 0 0 155.4141 119.7822
  A 7.00 2.65 -43.5 0 0 158.6676 113.0415
  Z
  M 142.1985 129.0763
  A 6.86 2.75 51.2 0 0 140.0432 122.0068
  A 6.86 2.75 51.2 0 0 133.6015 118.3837
  A 6.86 2.75 51.2 0 0 135.7568 125.4532
  A 6.86 2.75 51.2 0 0 142.1985 129.0763
  Z
  M 52.48 124.34
  Q 55.04 125.47 57.05 123.91
  A 1.61 1.60 -47.1 0 0 56.96 121.31
  Q 54.21 119.49 50.71 118.50
  A 1.72 1.71 23.8 0 0 48.78 119.24
  Q 46.83 122.36 45.64 125.61
  A 1.67 1.67 0.0 0 0 47.30 127.86
  Q 49.66 127.73 50.76 125.04
  Q 51.26 123.80 52.48 124.34
  Z
  M 157.9101 124.5826
  A 6.72 2.65 -24.6 0 0 150.6969 124.9705
  A 6.72 2.65 -24.6 0 0 145.6899 130.1774
  A 6.72 2.65 -24.6 0 0 152.9031 129.7895
  A 6.72 2.65 -24.6 0 0 157.9101 124.5826
  Z
  M 135.5522 138.2715
  A 6.66 2.83 74.3 0 0 136.4744 131.0942
  A 6.66 2.83 74.3 0 0 131.9478 125.4485
  A 6.66 2.83 74.3 0 0 131.0256 132.6258
  A 6.66 2.83 74.3 0 0 135.5522 138.2715
  Z
  M 57.15 134.62
  L 61.42 134.15
  A 1.20 1.20 0.0 0 0 62.25 132.24
  C 60.78 130.28 54.86 127.02 53.24 130.21
  C 52.30 132.09 50.38 135.07 50.68 137.19
  Q 50.88 138.63 52.33 138.51
  Q 55.60 138.23 56.30 135.37
  A 0.99 0.98 3.3 0 1 57.15 134.62
  Z
  M 151.4210 133.6815
  A 6.99 2.70 -22.0 0 0 143.9286 133.7966
  A 6.99 2.70 -22.0 0 0 138.4590 138.9185
  A 6.99 2.70 -22.0 0 0 145.9514 138.8034
  A 6.99 2.70 -22.0 0 0 151.4210 133.6815
  Z
  M 86.51 151.23
  Q 85.66 150.48 88.47 150.00
  L 87.80 150.39
  Q 87.38 150.64 87.38 151.13
  L 87.38 151.49
  Q 87.38 152.08 87.96 152.08
  Q 97.91 152.07 108.60 151.99
  Q 115.31 151.94 120.74 152.77
  Q 127.03 153.73 133.15 154.47
  A 0.76 0.75 -88.4 0 0 133.99 153.67
  Q 133.87 151.95 134.45 150.31
  Q 135.64 146.93 136.14 143.70
  Q 136.33 142.47 135.11 142.20
  Q 133.74 141.90 132.27 141.83
  Q 130.79 141.76 129.31 141.36
  Q 124.14 139.97 118.70 139.25
  Q 117.15 139.04 115.62 138.74
  Q 113.89 138.41 112.02 138.32
  Q 97.62 137.63 87.01 138.19
  C 82.64 138.42 78.47 139.44 74.20 139.99
  Q 72.04 140.26 70.18 141.16
  Q 68.27 142.08 65.66 141.86
  Q 63.85 141.70 63.02 143.01
  Q 62.61 143.65 62.88 144.39
  Q 64.73 149.44 66.17 154.14
  A 1.23 1.22 73.9 0 0 67.65 154.96
  C 68.66 154.69 69.40 154.31 70.48 154.20
  Q 76.11 153.62 81.73 153.00
  Q 82.86 152.88 84.14 152.23
  Q 85.23 151.68 86.51 151.23
  Z
  M 134.18 156.78
  L 131.57 156.19
  Q 130.56 155.96 130.19 156.92
  L 129.06 159.82
  Q 128.61 160.98 129.74 161.51
  Q 140.81 166.73 153.87 166.02
  A 0.44 0.43 -22.8 0 0 154.17 165.29
  L 146.44 156.95
  A 1.27 1.27 0.0 0 1 146.66 155.04
  L 155.80 148.87
  Q 156.42 148.45 155.67 148.40
  C 149.67 147.96 144.21 148.14 138.41 146.13
  A 0.69 0.69 0.0 0 0 137.52 146.61
  L 134.97 156.30
  Q 134.81 156.93 134.18 156.78
  Z
  M 55.97 155.70
  A 0.79 0.79 0.0 0 1 55.88 156.76
  Q 52.55 159.84 49.64 163.26
  Q 49.30 163.66 48.75 163.98
  Q 47.84 164.52 47.81 164.94
  Q 47.75 166.06 48.86 166.16
  Q 61.36 167.29 72.78 161.33
  Q 73.61 160.89 73.25 160.03
  L 71.87 156.77
  Q 71.45 155.76 70.45 156.20
  Q 68.56 157.05 66.54 157.11
  A 1.92 1.91 -9.3 0 1 64.67 155.77
  L 62.21 147.70
  A 1.28 1.28 0.0 0 0 60.89 146.80
  L 45.94 147.94
  Q 44.56 148.05 45.71 148.81
  Q 50.32 151.84 54.79 154.63
  Q 55.48 155.06 55.97 155.70
  Z"
/>
<ellipse fill="#fffffe" cx="0.00" cy="0.00" transform="translate(134.70,70.77) rotate(75.8)" rx="5.89" ry="2.32"/>
<path fill="#fffffe" d="
  M 78.55 67.44
  L 78.82 69.67
  L 78.00 73.08
  A 1.54 1.54 0.0 0 1 75.15 73.46
  Q 74.46 72.20 74.50 70.76
  Q 74.51 70.23 74.00 70.13
  C 72.65 69.87 70.39 69.15 70.86 67.31
  Q 71.01 66.72 71.61 66.78
  L 78.55 67.44
  Z"
/>
<path fill="#fffffe" d="
  M 120.38 67.95
  Q 125.54 67.72 129.62 71.31
  C 130.47 72.06 131.44 72.75 131.20 74.02
  Q 130.98 75.18 129.82 74.94
  Q 123.61 73.63 120.33 69.79
  Q 119.99 68.81 120.38 67.95
  Z"
/>
<ellipse fill="#fffffe" cx="0.00" cy="0.00" transform="translate(141.72,77.11) rotate(91.9)" rx="6.21" ry="2.43"/>
<path fill="#008cc1" d="
  M 119.26 71.18
  L 122.93 74.15
  A 0.72 0.71 56.0 0 1 122.69 75.39
  L 120.32 76.11
  A 1.59 1.59 0.0 0 0 119.85 78.92
  L 123.28 81.39
  Q 123.77 81.74 123.45 82.25
  Q 123.21 82.65 123.29 83.10
  Q 123.39 83.64 123.79 84.04
  Q 126.39 86.70 130.01 87.78
  A 0.60 0.60 0.0 0 1 130.15 88.87
  Q 128.39 89.93 129.62 91.41
  Q 130.76 92.79 132.42 93.66
  A 0.57 0.56 33.3 0 1 132.60 94.50
  C 130.86 96.71 133.79 99.05 135.42 100.10
  Q 136.94 101.07 135.27 101.74
  Q 135.07 101.82 134.90 101.97
  A 1.15 1.14 -21.5 0 0 134.50 102.88
  Q 134.62 105.68 136.93 108.14
  A 0.60 0.60 0.0 0 1 136.68 109.12
  C 133.05 110.31 134.11 113.47 135.69 115.98
  Q 136.18 116.75 135.26 116.72
  C 134.47 116.69 133.55 116.47 132.80 116.78
  Q 129.93 117.99 131.94 122.10
  Q 132.63 123.51 131.09 123.84
  C 126.64 124.80 130.75 135.47 131.90 137.81
  Q 132.18 138.37 132.73 138.65
  Q 133.11 138.85 133.14 138.88
  Q 134.05 140.02 132.63 139.73
  Q 119.82 137.16 106.74 136.37
  C 94.75 135.65 83.72 136.59 71.82 138.63
  Q 68.49 139.20 65.62 140.19
  A 0.52 0.52 0.0 0 1 64.96 139.51
  C 66.16 136.37 66.93 132.77 63.93 130.34
  C 61.80 128.62 60.67 128.49 60.85 125.27
  C 60.97 122.97 60.01 120.99 58.36 119.32
  A 1.97 1.96 -53.4 0 1 58.03 117.03
  Q 59.97 113.41 57.62 109.77
  A 2.42 2.42 0.0 0 1 57.80 106.90
  C 60.02 104.23 59.02 101.59 59.19 98.45
  Q 59.22 97.96 59.52 97.58
  Q 61.58 94.95 61.52 91.55
  C 61.51 90.45 61.91 89.56 62.91 89.05
  C 65.23 87.88 65.81 85.89 66.47 83.59
  Q 66.67 82.90 67.35 82.68
  C 70.31 81.73 72.57 82.12 74.02 78.71
  A 1.53 1.51 88.5 0 1 74.74 77.94
  Q 75.94 77.32 77.21 76.86
  C 79.25 76.11 80.16 74.26 80.79 72.28
  Q 82.39 72.73 83.64 74.21
  Q 84.00 74.64 83.93 75.20
  C 83.67 77.08 83.32 78.89 83.78 80.79
  Q 85.18 86.44 91.40 87.50
  C 93.98 87.94 96.20 86.51 98.52 85.71
  C 100.73 84.94 102.95 86.67 105.01 87.27
  Q 107.59 88.01 110.60 86.68
  C 115.52 84.50 116.66 80.42 115.63 75.46
  A 1.37 1.35 -34.4 0 1 115.83 74.42
  Q 117.21 72.37 119.26 71.18
  Z
  M 112.48 114.08
  C 113.05 117.98 114.05 123.03 116.19 126.48
  Q 116.56 127.07 117.27 127.07
  L 124.52 127.01
  Q 126.54 127.00 126.34 124.98
  L 126.28 124.42
  Q 126.11 122.74 124.42 122.76
  L 121.26 122.81
  A 1.14 1.13 -13.8 0 1 120.23 122.19
  Q 118.35 118.47 118.04 113.90
  Q 117.99 113.20 118.69 113.21
  L 123.19 113.25
  Q 124.65 113.27 124.57 111.81
  L 124.52 110.72
  Q 124.42 109.03 122.72 109.00
  L 119.82 108.95
  A 1.69 1.69 0.0 0 1 118.16 107.13
  Q 118.49 102.98 120.24 98.99
  Q 120.89 97.50 122.48 97.52
  Q 124.51 97.54 124.47 95.51
  L 124.46 94.84
  Q 124.42 93.01 122.59 93.01
  L 116.33 93.01
  A 1.80 1.80 0.0 0 0 114.65 95.47
  L 115.53 97.70
  Q 115.75 98.27 115.61 98.86
  L 113.29 108.23
  A 1.04 1.03 -82.8 0 1 112.29 109.01
  L 107.17 109.00
  Q 106.48 109.00 106.16 108.38
  L 101.79 99.91
  Q 101.37 99.09 101.93 98.37
  Q 103.58 96.22 101.74 93.90
  A 1.09 1.06 -18.6 0 0 100.89 93.49
  L 93.07 93.51
  A 1.05 1.04 -65.7 0 0 92.37 93.78
  C 89.99 95.93 90.80 98.52 93.22 99.99
  Q 97.34 102.49 99.65 107.40
  A 1.09 1.08 -24.5 0 1 99.10 108.85
  Q 96.72 109.89 97.87 113.31
  Q 98.03 113.79 98.54 113.78
  L 101.30 113.74
  Q 102.14 113.73 102.05 114.56
  L 101.16 122.47
  Q 101.09 123.06 100.51 123.18
  C 96.53 124.02 91.61 120.57 88.58 118.22
  A 1.71 1.70 46.3 0 0 86.57 118.17
  Q 82.51 120.95 78.50 123.17
  C 76.67 124.19 74.16 124.03 73.85 121.43
  Q 72.11 106.96 83.28 99.84
  C 86.47 97.81 84.77 93.36 81.22 93.46
  Q 78.26 93.54 75.16 93.49
  C 71.91 93.44 69.59 97.38 73.36 99.25
  A 0.81 0.81 0.0 0 1 73.65 100.46
  C 69.39 106.16 68.85 113.56 69.25 120.69
  C 69.35 122.43 68.75 123.86 68.25 125.48
  A 2.22 2.22 0.0 0 0 69.85 128.30
  C 74.63 129.44 81.45 127.19 85.87 125.39
  A 2.73 2.70 45.3 0 1 87.99 125.41
  Q 95.90 128.78 104.71 127.75
  A 1.70 1.69 -3.4 0 0 106.21 126.07
  C 106.21 124.32 105.26 123.09 105.49 121.38
  Q 106.03 117.49 106.91 113.97
  A 0.80 0.78 -83.2 0 1 107.66 113.37
  L 111.50 113.25
  A 0.97 0.97 0.0 0 1 112.48 114.08
  Z"
/>
<path fill="#fffffe" d="
  M 66.90 75.07
  Q 66.20 75.06 65.51 74.92
  Q 63.59 74.50 63.86 72.70
  A 0.77 0.76 89.0 0 1 64.47 72.06
  Q 67.66 71.44 71.15 71.94
  Q 72.02 72.07 72.02 72.95
  L 72.01 77.46
  A 1.40 1.40 0.0 0 1 71.23 78.70
  Q 69.79 79.42 68.95 78.16
  Q 68.22 77.05 67.88 75.82
  A 1.03 1.01 82.1 0 0 66.90 75.07
  Z"
/>
<ellipse fill="#fffffe" cx="0.00" cy="0.00" transform="translate(128.01,78.55) rotate(8.5)" rx="6.51" ry="2.43"/>
<path fill="#fffffe" d="
  M 59.04 82.07
  L 57.10 81.79
  A 1.53 1.52 -13.7 0 1 56.07 81.17
  Q 55.37 80.19 55.93 79.41
  Q 56.19 79.05 56.62 78.93
  Q 59.65 78.09 63.26 78.72
  Q 64.35 78.91 64.42 80.02
  C 64.52 81.59 64.85 84.43 63.78 85.73
  A 1.67 1.66 53.0 0 1 60.97 85.33
  L 59.81 82.66
  Q 59.59 82.15 59.04 82.07
  Z"
/>
<ellipse fill="#fffffe" cx="0.00" cy="0.00" transform="translate(147.31,85.94) rotate(92.2)" rx="6.23" ry="2.39"/>
<ellipse fill="#fffffe" cx="0.00" cy="0.00" transform="translate(132.42,84.51) rotate(8.7)" rx="6.65" ry="2.34"/>
<path fill="#fffffe" d="
  M 53.13 90.37
  Q 51.39 90.38 49.44 89.97
  A 1.70 1.70 0.0 0 1 48.80 86.92
  C 50.45 85.74 54.94 85.42 56.90 85.41
  Q 57.92 85.41 58.34 86.35
  Q 59.80 89.72 59.07 93.53
  A 1.60 1.60 0.0 0 1 56.72 94.62
  Q 54.60 93.44 54.01 91.06
  Q 53.84 90.37 53.13 90.37
  Z"
/>
<ellipse fill="#fffffe" cx="0.00" cy="0.00" transform="translate(152.38,94.43) rotate(111.5)" rx="6.75" ry="2.89"/>
<ellipse fill="#fffffe" cx="0.00" cy="0.00" transform="translate(137.48,91.24) rotate(8.2)" rx="6.57" ry="2.34"/>
<path fill="#fef014" d="
  M 111.50 113.25
  L 107.66 113.37
  A 0.80 0.78 -83.2 0 0 106.91 113.97
  Q 106.03 117.49 105.49 121.38
  C 105.26 123.09 106.21 124.32 106.21 126.07
  A 1.70 1.69 -3.4 0 1 104.71 127.75
  Q 95.90 128.78 87.99 125.41
  A 2.73 2.70 45.3 0 0 85.87 125.39
  C 81.45 127.19 74.63 129.44 69.85 128.30
  A 2.22 2.22 0.0 0 1 68.25 125.48
  C 68.75 123.86 69.35 122.43 69.25 120.69
  C 68.85 113.56 69.39 106.16 73.65 100.46
  A 0.81 0.81 0.0 0 0 73.36 99.25
  C 69.59 97.38 71.91 93.44 75.16 93.49
  Q 78.26 93.54 81.22 93.46
  C 84.77 93.36 86.47 97.81 83.28 99.84
  Q 72.11 106.96 73.85 121.43
  C 74.16 124.03 76.67 124.19 78.50 123.17
  Q 82.51 120.95 86.57 118.17
  A 1.71 1.70 46.3 0 1 88.58 118.22
  C 91.61 120.57 96.53 124.02 100.51 123.18
  Q 101.09 123.06 101.16 122.47
  L 102.05 114.56
  Q 102.14 113.73 101.30 113.74
  L 98.54 113.78
  Q 98.03 113.79 97.87 113.31
  Q 96.72 109.89 99.10 108.85
  A 1.09 1.08 -24.5 0 0 99.65 107.40
  Q 97.34 102.49 93.22 99.99
  C 90.80 98.52 89.99 95.93 92.37 93.78
  A 1.05 1.04 -65.7 0 1 93.07 93.51
  L 100.89 93.49
  A 1.09 1.06 -18.6 0 1 101.74 93.90
  Q 103.58 96.22 101.93 98.37
  Q 101.37 99.09 101.79 99.91
  L 106.16 108.38
  Q 106.48 109.00 107.17 109.00
  L 112.29 109.01
  A 1.04 1.03 -82.8 0 0 113.29 108.23
  L 115.61 98.86
  Q 115.75 98.27 115.53 97.70
  L 114.65 95.47
  A 1.80 1.80 0.0 0 1 116.33 93.01
  L 122.59 93.01
  Q 124.42 93.01 124.46 94.84
  L 124.47 95.51
  Q 124.51 97.54 122.48 97.52
  Q 120.89 97.50 120.24 98.99
  Q 118.49 102.98 118.16 107.13
  A 1.69 1.69 0.0 0 0 119.82 108.95
  L 122.72 109.00
  Q 124.42 109.03 124.52 110.72
  L 124.57 111.81
  Q 124.65 113.27 123.19 113.25
  L 118.69 113.21
  Q 117.99 113.20 118.04 113.90
  Q 118.35 118.47 120.23 122.19
  A 1.14 1.13 -13.8 0 0 121.26 122.81
  L 124.42 122.76
  Q 126.11 122.74 126.28 124.42
  L 126.34 124.98
  Q 126.54 127.00 124.52 127.01
  L 117.27 127.07
  Q 116.56 127.07 116.19 126.48
  C 114.05 123.03 113.05 117.98 112.48 114.08
  A 0.97 0.97 0.0 0 0 111.50 113.25
  Z"
/>
<path fill="#fffffe" d="
  M 49.77 100.67
  L 46.06 102.18
  A 1.61 1.60 -22.6 0 1 43.98 101.33
  Q 43.44 100.10 44.44 99.03
  Q 46.99 96.28 50.25 94.12
  A 0.78 0.78 0.0 0 1 51.17 94.17
  C 52.58 95.33 56.28 98.43 56.34 100.33
  A 1.85 1.84 -88.2 0 1 54.33 102.23
  Q 52.24 102.03 50.82 100.84
  Q 50.34 100.44 49.77 100.67
  Z"
/>
<path fill="#fef014" d="
  M 180.78 96.58
  Q 179.65 99.00 181.27 100.23
  Q 181.72 100.57 181.41 101.04
  L 181.25 101.27
  A 0.47 0.47 0.0 0 1 180.58 101.39
  L 174.42 96.89
  A 0.98 0.98 0.0 0 1 174.77 95.15
  Q 178.86 94.18 182.95 94.13
  A 0.48 0.48 0.0 0 1 183.43 94.57
  L 183.46 94.95
  A 0.88 0.87 -5.1 0 1 182.68 95.88
  L 181.58 96.00
  A 0.99 0.98 8.8 0 0 180.78 96.58
  Z
  M 179.24 96.92
  Q 179.42 96.71 179.25 96.37
  A 0.46 0.45 80.0 0 0 178.90 96.12
  Q 177.79 95.94 176.76 96.11
  Q 176.06 96.22 176.64 96.62
  L 178.48 97.87
  Q 178.87 98.14 178.99 97.67
  L 179.12 97.15
  Q 179.15 97.02 179.24 96.92
  Z"
/>
<ellipse fill="#fffffe" cx="0.00" cy="0.00" transform="translate(140.43,98.23) rotate(21.5)" rx="6.45" ry="2.64"/>
<path fill="#fef014" d="
  M 20.55 99.74
  L 22.62 100.07
  A 1.48 1.45 -7.2 0 1 23.71 100.90
  L 23.84 101.18
  Q 24.09 101.74 23.48 101.74
  Q 21.77 101.72 19.97 101.25
  C 18.45 100.85 17.10 101.22 15.66 101.65
  Q 15.06 101.84 14.69 101.32
  L 14.49 101.05
  Q 14.09 100.50 14.75 100.33
  Q 18.05 99.52 20.56 95.87
  A 0.80 0.79 53.0 0 1 21.97 96.07
  Q 22.10 96.48 21.93 96.89
  C 21.56 97.75 20.72 98.19 20.21 98.94
  Q 19.75 99.61 20.55 99.74
  Z"
/>
<path fill="#019442" d="
  M 179.12 97.15
  L 178.99 97.67
  Q 178.87 98.14 178.48 97.87
  L 176.64 96.62
  Q 176.06 96.22 176.76 96.11
  Q 177.79 95.94 178.90 96.12
  A 0.46 0.45 80.0 0 1 179.25 96.37
  Q 179.42 96.71 179.24 96.92
  Q 179.15 97.02 179.12 97.15
  Z"
/>
<ellipse fill="#fffffe" cx="0.00" cy="0.00" transform="translate(154.54,105.70) rotate(124.9)" rx="6.79" ry="2.88"/>
<path fill="#fef014" d="
  M 171.89 106.78
  A 0.89 0.89 0.0 0 1 171.22 105.71
  L 171.76 103.40
  A 3.60 3.41 13.1 0 1 176.04 100.89
  L 177.21 101.16
  A 3.60 3.41 13.1 0 1 179.94 105.30
  L 179.41 107.62
  A 0.89 0.89 0.0 0 1 178.34 108.28
  L 171.89 106.78
  Z
  M 178.4737 104.7329
  A 1.25 1.25 0.0 0 0 177.6356 103.1764
  L 174.9154 102.3603
  A 1.25 1.25 0.0 0 0 173.3589 103.1984
  L 173.1463 103.9071
  A 1.25 1.25 0.0 0 0 173.9844 105.4636
  L 176.7046 106.2797
  A 1.25 1.25 0.0 0 0 178.2611 105.4416
  L 178.4737 104.7329
  Z"
/>
<ellipse fill="#fffffe" cx="0.00" cy="0.00" transform="translate(142.04,107.08) rotate(40.0)" rx="6.62" ry="2.81"/>
<rect fill="#008cc1" x="-2.67" y="-1.62" transform="translate(175.81,104.32) rotate(16.7)" width="5.34" height="3.24" rx="1.25"/>
<path fill="#fef014" d="
  M 18.71 106.17
  Q 18.04 105.21 16.63 105.20
  Q 16.12 105.20 16.08 104.70
  L 16.04 104.22
  Q 16.00 103.70 16.53 103.71
  L 24.23 103.96
  A 1.04 1.04 0.0 0 1 24.85 105.81
  L 18.77 110.75
  Q 17.97 111.40 17.98 110.37
  Q 17.99 109.31 18.67 108.40
  A 1.88 1.88 0.0 0 0 18.71 106.17
  Z
  M 22.54 105.92
  A 0.25 0.25 0.0 0 0 22.47 105.44
  L 20.84 105.16
  Q 19.95 105.01 20.05 105.91
  L 20.10 106.32
  Q 20.19 107.04 20.84 106.73
  L 22.54 105.92
  Z"
/>
<path fill="#019442" d="
  M 22.54 105.92
  L 20.84 106.73
  Q 20.19 107.04 20.10 106.32
  L 20.05 105.91
  Q 19.95 105.01 20.84 105.16
  L 22.47 105.44
  A 0.25 0.25 0.0 0 1 22.54 105.92
  Z"
/>
<path fill="#fffffe" d="
  M 48.96 112.61
  C 47.67 113.86 46.16 115.41 44.21 114.72
  A 1.54 1.54 0.0 0 1 43.38 112.52
  Q 44.90 109.82 47.46 107.33
  Q 48.84 105.98 50.66 107.09
  Q 53.57 108.86 55.41 110.89
  A 1.51 1.50 47.3 0 1 55.33 113.00
  C 53.84 114.40 51.46 113.68 50.04 112.56
  Q 49.48 112.11 48.96 112.61
  Z"
/>
<path fill="#fef014" d="
  M 25.62 112.12
  Q 26.88 112.29 27.83 113.08
  Q 28.16 113.35 28.14 113.78
  Q 28.11 114.35 27.57 114.18
  Q 23.69 112.98 19.88 114.03
  A 0.44 0.44 0.0 0 1 19.33 113.65
  L 19.29 113.35
  A 0.84 0.84 0.0 0 1 19.96 112.44
  Q 23.04 111.82 24.84 108.35
  A 0.73 0.73 0.0 0 1 26.14 108.36
  Q 26.80 109.68 25.28 110.80
  Q 23.79 111.88 25.62 112.12
  Z"
/>
<path fill="#fef014" d="
  M 175.69 114.22
  Q 176.23 114.82 176.50 115.57
  Q 176.80 116.39 175.94 116.27
  Q 174.89 116.12 174.17 115.45
  Q 172.65 114.01 170.63 112.87
  A 2.31 1.73 -0.0 0 1 170.27 112.60
  Q 168.72 111.16 169.51 110.41
  Q 170.00 109.94 170.66 109.92
  Q 174.17 109.79 178.09 109.38
  Q 178.72 109.32 178.41 109.87
  L 178.06 110.48
  Q 177.81 110.92 177.31 111.02
  Q 175.84 111.33 175.44 113.28
  Q 175.33 113.81 175.69 114.22
  Z
  M 172.47 112.04
  Q 172.91 112.56 173.43 112.97
  Q 174.00 113.43 174.07 112.70
  Q 174.09 112.42 174.25 112.18
  A 0.64 0.64 0.0 0 0 173.89 111.20
  Q 172.99 110.94 172.12 111.24
  Q 171.60 111.42 172.01 111.80
  Q 172.21 111.98 172.47 112.04
  Z"
/>
<ellipse fill="#fffffe" cx="0.00" cy="0.00" transform="translate(141.21,116.26) rotate(48.4)" rx="6.85" ry="2.74"/>
<path fill="#019442" d="
  M 172.47 112.04
  Q 172.21 111.98 172.01 111.80
  Q 171.60 111.42 172.12 111.24
  Q 172.99 110.94 173.89 111.20
  A 0.64 0.64 0.0 0 1 174.25 112.18
  Q 174.09 112.42 174.07 112.70
  Q 174.00 113.43 173.43 112.97
  Q 172.91 112.56 172.47 112.04
  Z"
/>
<ellipse fill="#fffffe" cx="0.00" cy="0.00" transform="translate(153.59,117.86) rotate(-43.5)" rx="7.00" ry="2.65"/>
<path fill="#fef014" d="
  M 23.76 119.95
  Q 23.33 117.43 21.25 117.61
  A 0.95 0.94 -17.2 0 1 20.33 117.13
  L 20.18 116.88
  Q 19.87 116.33 20.50 116.25
  Q 24.73 115.75 28.67 116.16
  A 1.12 1.12 0.0 0 1 29.35 118.05
  Q 26.73 120.77 23.40 122.91
  Q 22.96 123.19 22.69 122.74
  L 22.51 122.46
  A 0.63 0.63 0.0 0 1 22.75 121.59
  Q 23.34 121.27 23.65 120.66
  Q 23.83 120.32 23.76 119.95
  Z
  M 25.20 117.75
  Q 24.60 117.52 24.50 118.17
  A 1.03 1.03 0.0 0 0 25.82 119.31
  Q 26.33 119.15 26.71 118.57
  Q 26.97 118.18 26.59 117.91
  Q 26.26 117.66 25.81 117.78
  A 1.03 1.02 -42.1 0 1 25.20 117.75
  Z"
/>
<path fill="#fef014" d="
  M 169.51 119.53
  C 170.41 117.64 172.51 115.34 174.74 117.26
  Q 175.62 118.01 175.48 119.17
  Q 175.15 121.97 172.77 122.83
  Q 171.99 123.10 171.39 122.42
  Q 171.04 122.01 171.50 121.74
  L 173.50 120.55
  A 1.36 1.36 0.0 0 0 173.99 118.71
  Q 173.28 117.45 172.51 118.13
  C 171.22 119.26 171.08 121.79 168.63 121.54
  C 165.26 121.19 166.55 116.29 169.21 115.98
  Q 170.67 115.82 169.84 117.03
  Q 169.51 117.51 168.95 117.74
  Q 167.49 118.36 168.17 119.57
  Q 168.89 120.83 169.51 119.53
  Z"
/>
<path fill="#019442" d="
  M 25.81 117.78
  Q 26.26 117.66 26.59 117.91
  Q 26.97 118.18 26.71 118.57
  Q 26.33 119.15 25.82 119.31
  A 1.03 1.03 0.0 0 1 24.50 118.17
  Q 24.60 117.52 25.20 117.75
  A 1.03 1.02 -42.1 0 0 25.81 117.78
  Z"
/>
<ellipse fill="#fffffe" cx="0.00" cy="0.00" transform="translate(137.90,123.73) rotate(51.2)" rx="6.86" ry="2.75"/>
<path fill="#fffffe" d="
  M 52.48 124.34
  Q 51.26 123.80 50.76 125.04
  Q 49.66 127.73 47.30 127.86
  A 1.67 1.67 0.0 0 1 45.64 125.61
  Q 46.83 122.36 48.78 119.24
  A 1.72 1.71 23.8 0 1 50.71 118.50
  Q 54.21 119.49 56.96 121.31
  A 1.61 1.60 -47.1 0 1 57.05 123.91
  Q 55.04 125.47 52.48 124.34
  Z"
/>
<path fill="#fef014" d="
  M 25.95 127.44
  A 0.94 0.94 0.0 0 0 27.63 126.70
  C 26.07 119.31 34.47 121.78 31.95 127.10
  A 0.91 0.91 0.0 0 1 30.77 127.55
  L 30.53 127.44
  Q 29.70 127.08 30.30 126.41
  Q 30.83 125.81 30.94 125.11
  Q 31.06 124.35 30.37 124.01
  Q 30.05 123.85 29.70 123.83
  Q 29.07 123.79 29.07 124.42
  L 29.11 127.70
  Q 29.13 128.57 28.31 128.86
  C 24.79 130.12 23.75 127.38 23.84 124.59
  Q 23.86 123.93 24.45 123.66
  Q 24.87 123.46 25.30 123.39
  Q 26.45 123.20 25.97 124.26
  Q 25.08 126.24 25.95 127.44
  Z"
/>
<path fill="#fef014" d="
  M 169.60 129.95
  Q 166.99 129.45 164.51 128.60
  A 0.76 0.74 -77.9 0 1 164.01 127.81
  L 164.08 127.18
  A 0.44 0.44 0.0 0 1 164.67 126.81
  L 167.09 127.64
  Q 167.97 127.94 168.90 127.99
  Q 171.31 128.11 171.63 127.02
  Q 171.95 125.98 170.92 125.63
  L 165.48 123.79
  A 0.40 0.39 19.3 0 1 165.23 123.28
  L 165.32 123.03
  A 0.77 0.77 0.0 0 1 166.26 122.55
  L 171.67 124.06
  Q 172.22 124.21 172.51 124.70
  C 173.79 126.77 172.51 130.50 169.60 129.95
  Z"
/>
<ellipse fill="#fffffe" cx="0.00" cy="0.00" transform="translate(151.80,127.38) rotate(-24.6)" rx="6.72" ry="2.65"/>
<ellipse fill="#fffffe" cx="0.00" cy="0.00" transform="translate(133.75,131.86) rotate(74.3)" rx="6.66" ry="2.83"/>
<path fill="#fffffe" d="
  M 56.30 135.37
  Q 55.60 138.23 52.33 138.51
  Q 50.88 138.63 50.68 137.19
  C 50.38 135.07 52.30 132.09 53.24 130.21
  C 54.86 127.02 60.78 130.28 62.25 132.24
  A 1.20 1.20 0.0 0 1 61.42 134.15
  L 57.15 134.62
  A 0.99 0.98 3.3 0 0 56.30 135.37
  Z"
/>
<path fill="#fef014" d="
  M 165.73 133.02
  Q 166.23 131.97 165.07 131.97
  Q 162.78 131.97 163.06 130.44
  A 0.75 0.75 0.0 0 1 164.03 129.87
  L 170.60 132.01
  A 0.91 0.91 0.0 0 1 171.20 133.09
  L 171.12 133.41
  A 0.34 0.34 0.0 0 1 170.70 133.66
  L 168.02 132.99
  Q 167.32 132.81 167.06 133.49
  L 166.36 135.35
  Q 166.14 135.93 166.76 135.96
  L 168.76 136.07
  A 0.83 0.83 0.0 0 1 169.54 137.01
  L 169.48 137.46
  Q 169.40 138.04 168.83 137.94
  Q 165.28 137.31 161.58 135.70
  Q 160.98 135.44 161.43 134.96
  Q 162.41 133.90 163.62 134.81
  A 0.95 0.95 0.0 0 0 165.05 134.46
  L 165.73 133.02
  Z"
/>
<path fill="#fef014" d="
  M 32.93 138.95
  L 29.74 139.74
  Q 28.85 139.96 28.78 139.05
  Q 28.70 138.14 28.16 137.43
  A 1.25 1.24 40.9 0 1 28.06 136.09
  C 28.41 135.46 28.79 134.93 28.73 134.16
  Q 28.57 132.19 26.86 132.00
  Q 26.10 131.91 25.78 131.22
  L 25.63 130.88
  Q 25.29 130.14 26.10 130.15
  Q 29.76 130.20 32.89 130.67
  Q 36.80 131.27 33.59 133.57
  Q 31.40 135.13 29.62 136.73
  Q 27.45 138.67 30.27 137.94
  Q 32.53 137.36 34.94 136.41
  Q 37.23 135.50 36.43 137.83
  Q 36.05 138.93 34.79 140.03
  Q 31.95 142.51 35.49 141.29
  L 37.46 140.62
  A 0.51 0.51 0.0 0 1 37.99 140.76
  L 38.20 141.01
  Q 38.58 141.44 38.09 141.73
  Q 35.17 143.46 32.09 143.96
  Q 28.84 144.49 30.94 141.96
  L 33.14 139.30
  Q 33.57 138.79 32.93 138.95
  Z
  M 30.99 133.49
  L 31.98 132.84
  Q 32.68 132.37 31.87 132.13
  Q 31.24 131.93 30.55 131.95
  Q 29.94 131.96 29.96 132.57
  L 29.98 132.98
  Q 30.02 134.14 30.99 133.49
  Z"
/>
<path fill="#019442" d="
  M 29.98 132.98
  L 29.96 132.57
  Q 29.94 131.96 30.55 131.95
  Q 31.24 131.93 31.87 132.13
  Q 32.68 132.37 31.98 132.84
  L 30.99 133.49
  Q 30.02 134.14 29.98 132.98
  Z"
/>
<ellipse fill="#fffffe" cx="0.00" cy="0.00" transform="translate(144.94,136.30) rotate(-22.0)" rx="6.99" ry="2.70"/>
<path fill="#019442" d="
  M 88.47 150.00
  C 90.48 149.11 90.16 146.23 89.92 144.36
  C 89.26 139.13 79.49 139.69 80.23 146.61
  Q 80.45 148.71 82.30 149.93
  Q 83.96 151.03 86.51 151.23
  Q 85.23 151.68 84.14 152.23
  Q 82.86 152.88 81.73 153.00
  Q 76.11 153.62 70.48 154.20
  C 69.40 154.31 68.66 154.69 67.65 154.96
  A 1.23 1.22 73.9 0 1 66.17 154.14
  Q 64.73 149.44 62.88 144.39
  Q 62.61 143.65 63.02 143.01
  Q 63.85 141.70 65.66 141.86
  Q 68.27 142.08 70.18 141.16
  Q 72.04 140.26 74.20 139.99
  C 78.47 139.44 82.64 138.42 87.01 138.19
  Q 97.62 137.63 112.02 138.32
  Q 113.89 138.41 115.62 138.74
  Q 117.15 139.04 118.70 139.25
  Q 124.14 139.97 129.31 141.36
  Q 130.79 141.76 132.27 141.83
  Q 133.74 141.90 135.11 142.20
  Q 136.33 142.47 136.14 143.70
  Q 135.64 146.93 134.45 150.31
  Q 133.87 151.95 133.99 153.67
  A 0.76 0.75 -88.4 0 1 133.15 154.47
  Q 127.03 153.73 120.74 152.77
  Q 115.31 151.94 108.60 151.99
  Q 97.91 152.07 87.96 152.08
  Q 87.38 152.08 87.38 151.49
  L 87.38 151.13
  Q 87.38 150.64 87.80 150.39
  L 88.47 150.00
  Z
  M 103.88 147.41
  L 103.38 142.01
  A 2.19 2.19 0.0 0 0 101.00 140.03
  L 98.42 140.27
  A 4.70 4.56 84.7 0 0 94.31 145.37
  L 94.35 145.77
  A 4.70 4.56 84.7 0 0 99.32 150.03
  L 101.90 149.79
  A 2.19 2.19 0.0 0 0 103.88 147.41
  Z
  M 118.6463 145.3105
  A 4.45 4.45 0.0 0 0 114.6773 140.4266
  L 113.7024 140.3259
  A 4.45 4.45 0.0 0 0 108.8186 144.2949
  L 108.7137 145.3095
  A 4.45 4.45 0.0 0 0 112.6827 150.1934
  L 113.6576 150.2941
  A 4.45 4.45 0.0 0 0 118.5414 146.3251
  L 118.6463 145.3105
  Z
  M 129.99 152.07
  A 0.57 0.57 0.0 0 0 130.70 151.34
  Q 129.90 148.98 130.97 147.76
  Q 133.16 145.28 130.71 142.83
  Q 129.84 141.96 128.47 141.96
  Q 127.03 141.97 125.68 141.89
  A 1.45 1.43 7.9 0 0 124.20 143.00
  L 122.37 150.97
  Q 122.25 151.49 122.57 151.91
  Q 122.88 152.33 123.36 152.13
  Q 123.96 151.89 124.21 151.29
  Q 124.74 150.01 125.30 148.85
  Q 126.00 147.40 127.45 148.01
  Q 127.87 148.19 127.95 148.64
  L 128.30 150.83
  A 1.24 1.23 4.3 0 0 129.15 151.81
  L 129.99 152.07
  Z
  M 69.83 146.30
  Q 69.20 145.24 69.98 144.21
  Q 70.36 143.71 69.92 143.25
  Q 69.06 142.35 67.56 143.29
  A 2.15 2.14 67.1 0 0 66.62 145.62
  L 68.47 152.95
  A 0.94 0.94 0.0 0 0 70.03 153.40
  Q 71.77 151.72 74.33 152.08
  A 1.64 1.64 0.0 0 0 76.17 150.15
  Q 75.58 147.00 74.40 143.68
  Q 73.89 142.24 72.43 142.35
  Q 71.88 142.40 71.86 142.95
  C 71.82 143.87 72.41 144.52 72.13 145.49
  Q 71.80 146.62 70.52 146.67
  Q 70.06 146.69 69.83 146.30
  Z"
/>
<path fill="#e0352f" d="
  M 103.88 147.41
  A 2.19 2.19 0.0 0 1 101.90 149.79
  L 99.32 150.03
  A 4.70 4.56 84.7 0 1 94.35 145.77
  L 94.31 145.37
  A 4.70 4.56 84.7 0 1 98.42 140.27
  L 101.00 140.03
  A 2.19 2.19 0.0 0 1 103.38 142.01
  L 103.88 147.41
  Z
  M 101.28 147.39
  L 101.68 143.13
  A 1.10 1.10 0.0 0 0 100.68 141.93
  L 99.47 141.82
  A 2.76 2.50 -84.7 0 0 96.72 144.34
  L 96.64 145.30
  A 2.76 2.50 -84.7 0 0 98.87 148.27
  L 100.09 148.39
  A 1.10 1.10 0.0 0 0 101.28 147.39
  Z"
/>
<path fill="#e0352f" d="
  M 118.5414 146.3251
  A 4.45 4.45 0.0 0 1 113.6576 150.2941
  L 112.6827 150.1934
  A 4.45 4.45 0.0 0 1 108.7137 145.3095
  L 108.8186 144.2949
  A 4.45 4.45 0.0 0 1 113.7024 140.3259
  L 114.6773 140.4266
  A 4.45 4.45 0.0 0 1 118.6463 145.3105
  L 118.5414 146.3251
  Z
  M 111.99 148.24
  L 114.88 148.44
  A 1.20 1.20 0.0 0 0 116.16 147.33
  L 116.27 145.71
  A 3.74 2.19 -86.1 0 0 114.34 141.83
  L 113.42 141.77
  A 3.74 2.19 -86.1 0 0 110.98 145.35
  L 110.87 146.96
  A 1.20 1.20 0.0 0 0 111.99 148.24
  Z"
/>
<path fill="#e0352f" d="
  M 88.47 150.00
  Q 85.66 150.48 86.51 151.23
  Q 83.96 151.03 82.30 149.93
  Q 80.45 148.71 80.23 146.61
  C 79.49 139.69 89.26 139.13 89.92 144.36
  C 90.16 146.23 90.48 149.11 88.47 150.00
  Z
  M 85.2008 149.4279
  A 3.46 2.88 88.0 0 0 87.9582 145.8695
  A 3.46 2.88 88.0 0 0 84.9592 142.5121
  A 3.46 2.88 88.0 0 0 82.2018 146.0705
  A 3.46 2.88 88.0 0 0 85.2008 149.4279
  Z"
/>
<path fill="#019442" d="
  M 101.28 147.39
  A 1.10 1.10 0.0 0 1 100.09 148.39
  L 98.87 148.27
  A 2.76 2.50 -84.7 0 1 96.64 145.30
  L 96.72 144.34
  A 2.76 2.50 -84.7 0 1 99.47 141.82
  L 100.68 141.93
  A 1.10 1.10 0.0 0 1 101.68 143.13
  L 101.28 147.39
  Z"
/>
<path fill="#019442" d="
  M 111.99 148.24
  A 1.20 1.20 0.0 0 1 110.87 146.96
  L 110.98 145.35
  A 3.74 2.19 -86.1 0 1 113.42 141.77
  L 114.34 141.83
  A 3.74 2.19 -86.1 0 1 116.27 145.71
  L 116.16 147.33
  A 1.20 1.20 0.0 0 1 114.88 148.44
  L 111.99 148.24
  Z"
/>
<path fill="#e0352f" d="
  M 129.99 152.07
  L 129.15 151.81
  A 1.24 1.23 4.3 0 1 128.30 150.83
  L 127.95 148.64
  Q 127.87 148.19 127.45 148.01
  Q 126.00 147.40 125.30 148.85
  Q 124.74 150.01 124.21 151.29
  Q 123.96 151.89 123.36 152.13
  Q 122.88 152.33 122.57 151.91
  Q 122.25 151.49 122.37 150.97
  L 124.20 143.00
  A 1.45 1.43 7.9 0 1 125.68 141.89
  Q 127.03 141.97 128.47 141.96
  Q 129.84 141.96 130.71 142.83
  Q 133.16 145.28 130.97 147.76
  Q 129.90 148.98 130.70 151.34
  A 0.57 0.57 0.0 0 1 129.99 152.07
  Z
  M 129.8617 144.3932
  A 0.81 0.81 0.0 0 0 128.9920 143.6477
  L 126.4993 143.8395
  A 0.81 0.81 0.0 0 0 125.7538 144.7093
  L 125.8183 145.5468
  A 0.81 0.81 0.0 0 0 126.6880 146.2923
  L 129.1807 146.1005
  A 0.81 0.81 0.0 0 0 129.9262 145.2307
  L 129.8617 144.3932
  Z"
/>
<path fill="#e0352f" d="
  M 70.52 146.67
  Q 71.80 146.62 72.13 145.49
  C 72.41 144.52 71.82 143.87 71.86 142.95
  Q 71.88 142.40 72.43 142.35
  Q 73.89 142.24 74.40 143.68
  Q 75.58 147.00 76.17 150.15
  A 1.64 1.64 0.0 0 1 74.33 152.08
  Q 71.77 151.72 70.03 153.40
  A 0.94 0.94 0.0 0 1 68.47 152.95
  L 66.62 145.62
  A 2.15 2.14 67.1 0 1 67.56 143.29
  Q 69.06 142.35 69.92 143.25
  Q 70.36 143.71 69.98 144.21
  Q 69.20 145.24 69.83 146.30
  Q 70.06 146.69 70.52 146.67
  Z
  M 73.7194 149.3162
  A 1.89 1.35 1.4 0 0 71.8630 147.9204
  A 1.89 1.35 1.4 0 0 69.9406 149.2238
  A 1.89 1.35 1.4 0 0 71.7970 150.6196
  A 1.89 1.35 1.4 0 0 73.7194 149.3162
  Z"
/>
<ellipse fill="#019442" cx="0.00" cy="0.00" transform="translate(85.08,145.97) rotate(88.0)" rx="3.46" ry="2.88"/>
<rect fill="#019442" x="-2.06" y="-1.23" transform="translate(127.84,144.97) rotate(-4.4)" width="4.12" height="2.46" rx="0.81"/>
<path fill="#019442" d="
  M 134.97 156.30
  L 137.52 146.61
  A 0.69 0.69 0.0 0 1 138.41 146.13
  C 144.21 148.14 149.67 147.96 155.67 148.40
  Q 156.42 148.45 155.80 148.87
  L 146.66 155.04
  A 1.27 1.27 0.0 0 0 146.44 156.95
  L 154.17 165.29
  A 0.44 0.43 -22.8 0 1 153.87 166.02
  Q 140.81 166.73 129.74 161.51
  Q 128.61 160.98 129.06 159.82
  L 130.19 156.92
  Q 130.56 155.96 131.57 156.19
  L 134.18 156.78
  Q 134.81 156.93 134.97 156.30
  Z"
/>
<path fill="#019442" d="
  M 55.97 155.70
  Q 55.48 155.06 54.79 154.63
  Q 50.32 151.84 45.71 148.81
  Q 44.56 148.05 45.94 147.94
  L 60.89 146.80
  A 1.28 1.28 0.0 0 1 62.21 147.70
  L 64.67 155.77
  A 1.92 1.91 -9.3 0 0 66.54 157.11
  Q 68.56 157.05 70.45 156.20
  Q 71.45 155.76 71.87 156.77
  L 73.25 160.03
  Q 73.61 160.89 72.78 161.33
  Q 61.36 167.29 48.86 166.16
  Q 47.75 166.06 47.81 164.94
  Q 47.84 164.52 48.75 163.98
  Q 49.30 163.66 49.64 163.26
  Q 52.55 159.84 55.88 156.76
  A 0.79 0.79 0.0 0 0 55.97 155.70
  Z"
/>
<ellipse fill="#019442" cx="0.00" cy="0.00" transform="translate(71.83,149.27) rotate(1.4)" rx="1.89" ry="1.35"/>
<path fill="#fef014" d="
  M 85.69 171.84
  L 86.28 168.31
  Q 86.43 167.44 87.26 167.74
  L 87.65 167.88
  A 0.52 0.52 0.0 0 1 87.99 168.44
  Q 87.54 171.46 86.50 174.79
  Q 86.33 175.32 85.82 175.53
  Q 85.26 175.76 84.73 175.54
  Q 84.19 175.32 84.18 174.75
  Q 84.12 172.91 83.23 171.57
  Q 82.30 170.18 82.19 171.85
  Q 82.07 173.62 81.28 175.17
  A 1.13 1.12 51.7 0 1 79.19 174.92
  L 77.65 168.63
  Q 77.50 168.03 78.06 167.76
  Q 78.21 167.68 78.39 167.71
  Q 79.02 167.83 79.27 168.42
  Q 80.08 170.29 80.15 172.38
  Q 80.16 172.51 80.28 172.49
  Q 80.42 172.47 80.55 172.44
  Q 80.68 172.41 80.70 172.29
  Q 81.07 170.51 81.53 168.66
  Q 81.64 168.19 82.07 167.97
  Q 83.07 167.46 83.86 168.04
  Q 84.31 168.37 84.35 168.93
  Q 84.46 170.55 85.18 171.92
  Q 85.55 172.65 85.69 171.84
  Z"
/>
<rect fill="#fef014" x="-0.93" y="-3.82" transform="translate(89.89,171.67) rotate(0.4)" width="1.86" height="7.64" rx="0.51"/>
<path fill="#fef014" d="
  M 95.39 173.44
  L 95.39 168.44
  A 0.59 0.59 0.0 0 1 96.00 167.85
  L 96.27 167.86
  A 0.88 0.86 -86.3 0 1 97.10 168.82
  C 96.87 171.21 98.16 176.37 93.76 175.70
  Q 91.33 175.33 92.04 173.09
  A 0.34 0.34 0.0 0 1 92.62 172.97
  Q 93.44 173.94 94.63 174.10
  Q 95.39 174.20 95.39 173.44
  Z"
/>
<path fill="#fef014" d="
  M 102.88 173.88
  Q 100.38 173.40 99.59 175.31
  Q 99.33 175.93 98.70 175.68
  L 98.42 175.57
  Q 97.96 175.39 98.15 174.95
  L 100.31 169.76
  Q 102.13 165.39 103.95 169.76
  L 106.11 174.98
  A 0.56 0.56 0.0 0 1 105.44 175.74
  Q 104.55 175.49 104.10 174.74
  Q 103.68 174.03 102.88 173.88
  Z
  M 101.31 172.07
  Q 101.23 172.21 101.25 172.36
  A 0.40 0.40 0.0 0 0 101.75 172.70
  L 102.48 172.51
  Q 103.03 172.37 103.01 171.81
  Q 102.99 171.11 102.60 170.62
  Q 101.96 169.84 101.57 170.77
  Q 101.37 171.24 101.39 171.74
  Q 101.39 171.92 101.31 172.07
  Z"
/>
<path fill="#fef014" d="
  M 108.69 170.03
  A 0.56 0.56 0.0 0 0 109.71 169.88
  Q 110.27 167.88 112.11 167.79
  A 0.59 0.59 0.0 0 1 112.54 168.80
  Q 109.62 171.57 109.98 174.85
  A 0.78 0.78 0.0 0 1 109.19 175.72
  L 108.76 175.72
  Q 108.28 175.71 108.21 175.24
  Q 108.03 174.02 107.97 172.79
  C 107.88 171.02 106.46 170.01 105.79 168.46
  Q 105.50 167.81 106.22 167.81
  L 106.55 167.81
  Q 107.30 167.81 107.70 168.45
  L 108.69 170.03
  Z"
/>
<path fill="#fef014" d="
  M 116.18 173.68
  Q 114.29 173.74 113.63 175.18
  A 0.93 0.93 0.0 0 1 112.70 175.71
  L 112.37 175.68
  A 0.43 0.43 0.0 0 1 112.01 175.08
  L 114.87 168.43
  Q 115.03 168.04 115.41 167.89
  Q 116.08 167.61 116.79 167.88
  A 1.17 1.15 -0.4 0 1 117.45 168.52
  L 120.04 174.90
  A 0.50 0.49 -22.2 0 1 119.76 175.55
  L 119.45 175.67
  A 0.74 0.74 0.0 0 1 118.52 175.34
  C 118.00 174.38 117.41 173.64 116.18 173.68
  Z
  M 115.38 171.88
  Q 115.10 172.34 115.70 172.55
  A 0.83 0.82 -73.6 0 0 116.76 171.97
  Q 116.91 171.38 116.48 170.74
  Q 115.96 169.97 115.51 170.78
  Q 115.23 171.29 115.38 171.88
  Z"
/>
<path fill="#019442" d="
  M 101.39 171.74
  Q 101.37 171.24 101.57 170.77
  Q 101.96 169.84 102.60 170.62
  Q 102.99 171.11 103.01 171.81
  Q 103.03 172.37 102.48 172.51
  L 101.75 172.70
  A 0.40 0.40 0.0 0 1 101.25 172.36
  Q 101.23 172.21 101.31 172.07
  Q 101.39 171.92 101.39 171.74
  Z"
/>
<path fill="#019442" d="
  M 115.38 171.88
  Q 115.23 171.29 115.51 170.78
  Q 115.96 169.97 116.48 170.74
  Q 116.91 171.38 116.76 171.97
  A 0.83 0.82 -73.6 0 1 115.70 172.55
  Q 115.10 172.34 115.38 171.88
  Z"
/>
</svg>
